<?xml version="1.0" encoding="utf-8"?>
<!-- Generator: Adobe Illustrator 17.0.2, SVG Export Plug-In . SVG Version: 6.00 Build 0)  -->
<!DOCTYPE svg PUBLIC "-//W3C//DTD SVG 1.1//EN" "http://www.w3.org/Graphics/SVG/1.1/DTD/svg11.dtd">
<svg version="1.1" id="Layer_1" xmlns="http://www.w3.org/2000/svg" xmlns:xlink="http://www.w3.org/1999/xlink" x="0px" y="0px"
	 width="485px" height="74px" viewBox="0 0 485 74" enable-background="new 0 0 485 74" xml:space="preserve">
<g>
	<defs>
		<rect id="SVGID_1_" x="-248" width="980" height="700"/>
	</defs>
	<clipPath id="SVGID_2_">
		<use xlink:href="#SVGID_1_"  overflow="visible"/>
	</clipPath>
</g>
<g display="none">
	<g display="inline">
		<g>
			<g opacity="0.05">
				<rect x="-208" y="11" width="607" height="332"/>
				<rect x="-208.5" y="11.5" fill="none" stroke="#000000" stroke-miterlimit="10" width="608" height="331"/>
			</g>
			<g>
				<rect x="-208" y="9" fill="#FFFFFF" width="607" height="332"/>
				<rect x="-208.5" y="9.5" fill="none" stroke="#D5D5D5" stroke-miterlimit="10" width="608" height="331"/>
			</g>
		</g>
		<g>
			<path fill="#797979" d="M223.915,40.716l-0.423-1.138h-2.881l-0.423,1.138h-1.621l2.588-6.717h1.793l2.588,6.717H223.915z
				 M222.052,35.429l-1.048,2.89h2.095L222.052,35.429z"/>
			<path fill="#797979" d="M227.408,40.092v2.478h-1.278v-6.717h1.278v0.614c0.373-0.473,0.906-0.735,1.501-0.735
				c1.249,0,2.155,0.926,2.155,2.548c0,1.621-0.906,2.558-2.155,2.558C228.335,40.837,227.812,40.595,227.408,40.092z
				 M229.745,38.279c0-0.836-0.504-1.41-1.239-1.41c-0.412,0-0.876,0.232-1.098,0.554v1.712c0.212,0.312,0.686,0.564,1.098,0.564
				C229.241,39.699,229.745,39.125,229.745,38.279z"/>
			<path fill="#797979" d="M233.279,40.092v2.478h-1.278v-6.717h1.278v0.614c0.373-0.473,0.906-0.735,1.501-0.735
				c1.249,0,2.155,0.926,2.155,2.548c0,1.621-0.906,2.558-2.155,2.558C234.206,40.837,233.683,40.595,233.279,40.092z
				 M235.616,38.279c0-0.836-0.504-1.41-1.239-1.41c-0.412,0-0.876,0.232-1.098,0.554v1.712c0.212,0.312,0.686,0.564,1.098,0.564
				C235.112,39.699,235.616,39.125,235.616,38.279z"/>
			<path fill="#797979" d="M237.871,40.716v-6.717h1.278v6.717H237.871z"/>
			<path fill="#797979" d="M240.298,34.563c0-0.423,0.343-0.755,0.755-0.755c0.424,0,0.766,0.333,0.766,0.755
				s-0.342,0.766-0.766,0.766C240.641,35.329,240.298,34.986,240.298,34.563z M240.419,40.716v-4.864h1.278v4.864H240.419z"/>
			<path fill="#797979" d="M242.654,38.279c0-1.491,1.088-2.548,2.578-2.548c0.997,0,1.602,0.433,1.924,0.876l-0.836,0.786
				c-0.231-0.343-0.584-0.524-1.027-0.524c-0.775,0-1.319,0.564-1.319,1.41c0,0.846,0.544,1.42,1.319,1.42
				c0.443,0,0.796-0.202,1.027-0.534l0.836,0.785c-0.322,0.443-0.927,0.887-1.924,0.887
				C243.742,40.837,242.654,39.78,242.654,38.279z"/>
			<path fill="#797979" d="M250.911,40.716v-0.514c-0.332,0.403-0.906,0.635-1.54,0.635c-0.776,0-1.683-0.524-1.683-1.611
				c0-1.148,0.906-1.571,1.683-1.571c0.654,0,1.218,0.211,1.54,0.594v-0.614c0-0.494-0.423-0.816-1.067-0.816
				c-0.514,0-0.997,0.202-1.399,0.574l-0.504-0.896c0.595-0.534,1.359-0.765,2.125-0.765c1.118,0,2.135,0.443,2.135,1.843v3.142
				H250.911z M250.911,39.548v-0.604c-0.211-0.282-0.614-0.433-1.027-0.433c-0.503,0-0.916,0.272-0.916,0.735
				s0.413,0.725,0.916,0.725C250.297,39.971,250.7,39.83,250.911,39.548z"/>
			<path fill="#797979" d="M253.721,39.498V36.97h-0.806v-1.118h0.806v-1.329H255v1.329h0.986v1.118H255v2.185
				c0,0.312,0.16,0.544,0.442,0.544c0.191,0,0.373-0.071,0.443-0.151l0.271,0.977c-0.19,0.171-0.533,0.312-1.067,0.312
				C254.193,40.837,253.721,40.374,253.721,39.498z"/>
			<path fill="#797979" d="M256.742,34.563c0-0.423,0.343-0.755,0.755-0.755c0.423,0,0.766,0.333,0.766,0.755
				s-0.343,0.766-0.766,0.766C257.085,35.329,256.742,34.986,256.742,34.563z M256.863,40.716v-4.864h1.278v4.864H256.863z"/>
			<path fill="#797979" d="M259.098,38.279c0-1.38,0.967-2.548,2.568-2.548c1.611,0,2.578,1.168,2.578,2.548
				c0,1.379-0.967,2.558-2.578,2.558C260.064,40.837,259.098,39.659,259.098,38.279z M262.914,38.279c0-0.755-0.442-1.41-1.248-1.41
				c-0.796,0-1.239,0.655-1.239,1.41c0,0.765,0.443,1.42,1.239,1.42C262.472,39.699,262.914,39.044,262.914,38.279z"/>
			<path fill="#797979" d="M268.483,40.716v-2.94c0-0.675-0.353-0.907-0.896-0.907c-0.504,0-0.887,0.282-1.108,0.564v3.283H265.2
				v-4.864h1.278v0.625c0.312-0.363,0.917-0.745,1.702-0.745c1.078,0,1.592,0.604,1.592,1.551v3.434H268.483z"/>
			<path fill="#797979" d="M273.649,40.716v-6.717h2.648c2.104,0,3.564,1.339,3.564,3.354c0,2.035-1.46,3.364-3.555,3.364H273.649z
				 M278.402,37.353c0-1.178-0.725-2.095-2.095-2.095h-1.229v4.2h1.219C277.627,39.458,278.402,38.5,278.402,37.353z"/>
			<path fill="#797979" d="M280.536,38.279c0-1.41,1.048-2.548,2.518-2.548c1.46,0,2.438,1.087,2.438,2.668v0.302h-3.615
				c0.09,0.594,0.573,1.087,1.399,1.087c0.413,0,0.977-0.171,1.289-0.473l0.574,0.846c-0.483,0.443-1.249,0.675-2.004,0.675
				C281.654,40.837,280.536,39.84,280.536,38.279z M283.054,36.779c-0.796,0-1.138,0.554-1.188,1.037h2.397
				C284.222,37.353,283.899,36.779,283.054,36.779z"/>
			<path fill="#797979" d="M289.338,40.716v-0.514c-0.332,0.403-0.906,0.635-1.541,0.635c-0.775,0-1.682-0.524-1.682-1.611
				c0-1.148,0.906-1.571,1.682-1.571c0.655,0,1.219,0.211,1.541,0.594v-0.614c0-0.494-0.423-0.816-1.067-0.816
				c-0.514,0-0.997,0.202-1.399,0.574l-0.504-0.896c0.595-0.534,1.359-0.765,2.125-0.765c1.118,0,2.135,0.443,2.135,1.843v3.142
				H289.338z M289.338,39.548v-0.604c-0.211-0.282-0.614-0.433-1.027-0.433c-0.503,0-0.916,0.272-0.916,0.735
				s0.413,0.725,0.916,0.725C288.724,39.971,289.127,39.83,289.338,39.548z"/>
			<path fill="#797979" d="M295.229,40.716v-0.625c-0.382,0.483-0.906,0.746-1.5,0.746c-1.219,0-2.155-0.927-2.155-2.558
				c0-1.581,0.916-2.548,2.155-2.548c0.574,0,1.118,0.242,1.5,0.745v-2.478h1.289v6.717H295.229z M295.229,39.145v-1.722
				c-0.211-0.322-0.674-0.554-1.098-0.554c-0.734,0-1.238,0.574-1.238,1.41c0,0.846,0.504,1.42,1.238,1.42
				C294.555,39.699,295.018,39.467,295.229,39.145z"/>
			<path fill="#797979" d="M297.786,40.716v-6.717h1.278v6.717H297.786z"/>
			<path fill="#797979" d="M300.213,34.563c0-0.423,0.343-0.755,0.755-0.755c0.423,0,0.766,0.333,0.766,0.755
				s-0.343,0.766-0.766,0.766C300.556,35.329,300.213,34.986,300.213,34.563z M300.334,40.716v-4.864h1.278v4.864H300.334z"/>
			<path fill="#797979" d="M306.165,40.716v-2.94c0-0.675-0.353-0.907-0.896-0.907c-0.504,0-0.887,0.282-1.108,0.564v3.283h-1.278
				v-4.864h1.278v0.625c0.312-0.363,0.917-0.745,1.702-0.745c1.078,0,1.592,0.604,1.592,1.551v3.434H306.165z"/>
			<path fill="#797979" d="M308.399,38.279c0-1.41,1.048-2.548,2.518-2.548c1.46,0,2.438,1.087,2.438,2.668v0.302h-3.615
				c0.09,0.594,0.573,1.087,1.399,1.087c0.413,0,0.977-0.171,1.289-0.473l0.574,0.846c-0.483,0.443-1.249,0.675-2.004,0.675
				C309.518,40.837,308.399,39.84,308.399,38.279z M310.917,36.779c-0.796,0-1.138,0.554-1.188,1.037h2.397
				C312.085,37.353,311.763,36.779,310.917,36.779z"/>
			<path fill="#797979" d="M314.119,36.597c0-0.443,0.372-0.815,0.815-0.815s0.815,0.373,0.815,0.815
				c0,0.443-0.372,0.816-0.815,0.816S314.119,37.041,314.119,36.597z M314.119,40.011c0-0.443,0.372-0.815,0.815-0.815
				s0.815,0.373,0.815,0.815c0,0.443-0.372,0.816-0.815,0.816S314.119,40.455,314.119,40.011z"/>
			<path fill="#797979" d="M325.236,40.716v-5.65l-2.275,5.65h-0.343l-2.286-5.65v5.65h-0.836v-6.717h1.199l2.095,5.176l2.084-5.176
				h1.198v6.717H325.236z"/>
			<path fill="#797979" d="M330.654,40.716v-0.554c-0.393,0.443-0.957,0.675-1.611,0.675c-0.816,0-1.692-0.554-1.692-1.611
				c0-1.098,0.866-1.602,1.692-1.602c0.664,0,1.219,0.211,1.611,0.655v-0.876c0-0.645-0.523-1.017-1.229-1.017
				c-0.584,0-1.058,0.202-1.491,0.675l-0.353-0.523c0.524-0.544,1.148-0.806,1.944-0.806c1.037,0,1.883,0.463,1.883,1.641v3.344
				H330.654z M330.654,39.689v-0.926c-0.292-0.393-0.806-0.594-1.329-0.594c-0.716,0-1.209,0.443-1.209,1.058
				c0,0.624,0.493,1.067,1.209,1.067C329.849,40.293,330.362,40.092,330.654,39.689z"/>
			<path fill="#797979" d="M332.778,41.935c0.11,0.05,0.292,0.081,0.413,0.081c0.332,0,0.554-0.111,0.725-0.514l0.322-0.735
				l-2.034-4.915h0.826l1.611,3.988l1.621-3.988h0.815l-2.437,5.851c-0.292,0.705-0.786,0.977-1.431,0.987
				c-0.161,0-0.413-0.03-0.544-0.07L332.778,41.935z"/>
			<path fill="#797979" d="M340.009,39.729l0.493-0.524c0.394,0.524,1.078,0.886,1.873,0.886c0.978,0,1.571-0.493,1.571-1.259
				c0-0.836-0.685-1.188-1.672-1.188c-0.281,0-0.594,0-0.694,0.01v-0.766c0.11,0.01,0.423,0.01,0.694,0.01
				c0.847,0,1.562-0.333,1.562-1.108c0-0.745-0.685-1.148-1.501-1.148c-0.735,0-1.278,0.282-1.772,0.816l-0.463-0.524
				c0.483-0.594,1.259-1.037,2.306-1.037c1.289,0,2.267,0.655,2.267,1.783c0,0.977-0.816,1.46-1.44,1.561
				c0.604,0.061,1.551,0.574,1.551,1.662c0,1.118-0.906,1.934-2.387,1.934C341.258,40.837,340.422,40.333,340.009,39.729z"/>
			<path fill="#797979" d="M347.118,40.716v-5.62l-1.078,1.148l-0.503-0.513l1.682-1.732h0.735v6.717H347.118z"/>
			<path fill="#797979" d="M349.696,41.995l-0.383-0.312c0.322-0.211,0.614-0.604,0.654-0.937c-0.021,0.01-0.091,0.02-0.141,0.02
				c-0.272,0-0.483-0.222-0.483-0.514s0.231-0.543,0.533-0.543c0.343,0,0.635,0.282,0.635,0.765
				C350.512,41.089,350.159,41.663,349.696,41.995z"/>
			<path fill="#797979" d="M354.207,40.716v-0.675c2.417-1.893,3.736-3.011,3.736-4.169c0-0.866-0.715-1.229-1.41-1.229
				c-0.806,0-1.43,0.342-1.822,0.846l-0.514-0.534c0.514-0.685,1.39-1.057,2.336-1.057c1.118,0,2.256,0.634,2.256,1.974
				c0,1.37-1.39,2.619-3.263,4.099h3.293v0.745H354.207z"/>
			<path fill="#797979" d="M360.098,37.363c0-1.642,0.725-3.464,2.568-3.464c1.832,0,2.567,1.823,2.567,3.464
				c0,1.631-0.735,3.475-2.567,3.475C360.822,40.837,360.098,38.994,360.098,37.363z M364.378,37.363
				c0-1.339-0.434-2.719-1.712-2.719c-1.279,0-1.713,1.38-1.713,2.719s0.434,2.729,1.713,2.729
				C363.944,40.092,364.378,38.702,364.378,37.363z"/>
			<path fill="#797979" d="M367.54,40.716v-5.62l-1.078,1.148l-0.503-0.513l1.682-1.732h0.735v6.717H367.54z"/>
			<path fill="#797979" d="M372.675,40.716v-1.702h-3.192v-0.695l2.88-4.32h1.148v4.28h0.946v0.735h-0.946v1.702H372.675z
				 M372.675,34.774l-2.356,3.505h2.356V34.774z"/>
		</g>
		<line fill="none" stroke="#EAEAEA" stroke-miterlimit="10" x1="-209" y1="63.5" x2="399" y2="63.5"/>
	</g>
	<g display="inline">
		<g>
			<g opacity="0.05">
				<rect x="415" y="11" width="277" height="187"/>
				<rect x="414.5" y="11.5" fill="none" stroke="#000000" stroke-miterlimit="10" width="277" height="186"/>
			</g>
			<g>
				<rect x="415" y="9" fill="#FFFFFF" width="277" height="187"/>
				<rect x="414.5" y="9.5" fill="none" stroke="#D5D5D5" stroke-miterlimit="10" width="277" height="186"/>
			</g>
		</g>
		<line fill="none" stroke="#EAEAEA" stroke-miterlimit="10" x1="414" y1="63.5" x2="691" y2="63.5"/>
		<g>
			<path fill="#424242" d="M447.004,41.555v-8.073l-3.155,8.073h-1.041l-3.155-8.073v8.073h-2.384V30.36h3.341l2.719,6.999
				l2.719-6.999h3.357v11.195H447.004z"/>
			<path fill="#424242" d="M451.602,42.814c0.185,0.084,0.47,0.134,0.672,0.134c0.554,0,0.923-0.151,1.124-0.587l0.303-0.705
				l-3.29-8.208h2.282l2.115,5.64l2.132-5.64h2.282l-3.81,9.433c-0.604,1.527-1.679,1.93-3.072,1.964
				c-0.234,0-0.788-0.051-1.04-0.135L451.602,42.814z"/>
			<path fill="#424242" d="M464.541,41.555V30.36h5.237c2.434,0,3.76,1.645,3.76,3.608c0,1.947-1.343,3.592-3.76,3.592h-2.854v3.995
				H464.541z M471.104,33.968c0-0.939-0.722-1.51-1.662-1.51h-2.518v3.004h2.518C470.383,35.462,471.104,34.892,471.104,33.968z"/>
			<path fill="#424242" d="M474.98,41.555v-8.107h2.132v1.091c0.587-0.705,1.577-1.292,2.585-1.292v2.082
				c-0.151-0.034-0.336-0.05-0.588-0.05c-0.705,0-1.645,0.403-1.997,0.923v5.354H474.98z"/>
			<path fill="#424242" d="M480.502,37.493c0-2.299,1.611-4.247,4.28-4.247c2.686,0,4.297,1.947,4.297,4.247
				c0,2.3-1.611,4.263-4.297,4.263C482.113,41.756,480.502,39.793,480.502,37.493z M486.863,37.493c0-1.259-0.738-2.35-2.081-2.35
				c-1.326,0-2.064,1.091-2.064,2.35c0,1.276,0.738,2.367,2.064,2.367C486.125,39.86,486.863,38.769,486.863,37.493z"/>
		</g>
	</g>
</g>
<g>
	<g>
		<linearGradient id="SVGID_4_" gradientUnits="userSpaceOnUse" x1="110.5039" y1="69.6265" x2="110.5039" y2="5.2397">
			<stop  offset="0" style="stop-color:#C7C9CA"/>
			<stop  offset="1" style="stop-color:#FFFFFF"/>
		</linearGradient>
		<path fill="url(#SVGID_4_)" d="M118.704,32.877l6.108-18.458c-2.52-0.922-4.737-1.603-6.648-2.042
			c-1.914-0.438-3.612-0.658-5.096-0.658c-2.07,0-3.662,0.343-4.775,1.029c-1.114,0.687-1.67,1.659-1.67,2.919
			c0,0.158,0.034,0.562,0.101,1.215c0.022,0.225,0.034,0.382,0.034,0.472c-0.202,0.315-0.444,0.551-0.725,0.709
			c-0.281,0.157-0.591,0.236-0.928,0.236c-0.99,0-1.801-0.376-2.43-1.13c-0.63-0.753-0.945-1.715-0.945-2.885
			c0-2.79,1.084-4.995,3.256-6.614c2.171-1.62,5.158-2.43,8.96-2.43c3.105,0,6.406,0.405,9.904,1.215
			c3.498,0.81,7.081,2.014,10.748,3.61c-1.732,5.377-3.206,9.911-4.421,13.6c-1.215,3.689-2.317,6.963-3.307,9.82
			c0.562,0.113,1.339,0.259,2.328,0.438c3.757,0.721,5.637,1.632,5.637,2.734c0,0.18-0.102,0.618-0.304,1.316
			c-0.113,0.383-0.203,0.687-0.27,0.911l-2.059,7.188l-0.034,0.1c-0.337,1.125-1.293,1.688-2.868,1.688
			c-0.766,0-1.339-0.089-1.722-0.27c-0.382-0.18-0.573-0.46-0.573-0.844c0-0.044,0.034-0.179,0.101-0.404
			c0.022-0.091,0.034-0.158,0.034-0.202l1.451-5.738c-0.518-0.179-1.092-0.331-1.722-0.456c-0.63-0.123-1.361-0.23-2.193-0.319
			c-3.375,10.709-7.126,18.386-11.254,23.031c-4.129,4.645-9.208,6.968-15.236,6.968c-3.465,0-6.333-0.815-8.605-2.446
			c-2.272-1.632-3.408-3.65-3.408-6.058c0-1.282,0.404-2.362,1.215-3.24c0.81-0.876,1.835-1.316,3.071-1.316h0.135
			c0.315,1.957,1.084,3.448,2.311,4.471c1.226,1.024,2.853,1.537,4.877,1.537c4.162,0,7.66-1.755,10.496-5.266
			c2.834-3.508,5.568-9.628,8.2-18.357c-2.003,0.045-4.016,0.299-6.04,0.76c-2.025,0.461-3.094,0.69-3.206,0.69
			c-0.135,0-0.259-0.078-0.372-0.236c-0.113-0.157-0.169-0.337-0.169-0.539v-0.271l0.709-3.88c0.157-0.9,1.068-1.546,2.733-1.94
			C111.797,33.142,114.654,32.923,118.704,32.877z"/>
		<linearGradient id="SVGID_6_" gradientUnits="userSpaceOnUse" x1="178.2002" y1="58.3555" x2="178.2002" y2="25.4873">
			<stop  offset="0" style="stop-color:#C7C9CA"/>
			<stop  offset="1" style="stop-color:#FFFFFF"/>
		</linearGradient>
		<path fill="url(#SVGID_6_)" d="M186.029,46.005c-2.407,4.274-4.792,7.401-7.154,9.381c-2.363,1.979-4.894,2.969-7.593,2.969
			c-1.282,0-2.402-0.179-3.358-0.54c-0.957-0.36-1.704-0.888-2.244-1.585c-1.125,0.607-2.462,1.124-3.878,1.544
			c-1.551,0.458-3.348,0.544-5.031,0.42l1.35-4.529c1.238-0.067,2.555-0.035,3.533-0.281c0.979-0.249,1.836-0.546,2.44-1.238
			c0,0-0.157-0.961-0.202-1.468c-0.045-0.507-0.067-1.051-0.067-1.637c0-1.867,0.405-3.908,1.215-6.125
			c0.81-2.216,1.946-4.393,3.408-6.529c2.249-3.24,4.742-5.709,7.475-7.408c2.734-1.699,5.562-2.548,8.488-2.548
			c1.461,0,2.721,0.214,3.779,0.641c1.057,0.428,2.059,1.114,3.003,2.059l0.472-1.518c0.292-0.922,0.585-1.507,0.878-1.755
			c0.292-0.248,0.72-0.371,1.282-0.371c1.552,0,2.907,0.265,4.066,0.793c1.159,0.528,1.738,1.153,1.738,1.872
			c0,0.225-0.483,1.282-1.451,3.173c-0.967,1.889-1.823,3.689-2.564,5.398c-1.486,3.396-2.605,6.305-3.358,8.723
			c-0.754,2.419-1.13,4.281-1.13,5.585c0,0.901,0.28,1.524,0.843,1.873c0.562,0.349,1.837,1.011,4.042,0.535l-1.092,4.589
			c0,0-5.466,0.983-8.484-0.923c-1.37-0.864-2.16-2.002-2.16-3.779c0-0.787,0.136-1.754,0.406-2.902
			C184.949,49.279,185.399,47.805,186.029,46.005z M189.471,33.215c-0.606-0.473-1.209-0.821-1.805-1.046
			c-0.596-0.224-1.198-0.337-1.805-0.337c-1.328,0-2.852,0.573-4.573,1.721c-1.72,1.146-3.369,2.711-4.944,4.689
			c-1.439,1.823-2.581,3.752-3.424,5.788c-0.844,2.037-1.266,3.818-1.266,5.348c0,1.103,0.191,1.918,0.574,2.447
			c0.382,0.529,0.967,0.794,1.754,0.794c2.205,0,4.623-1.643,7.256-4.928C183.87,44.408,186.614,39.582,189.471,33.215z"/>
		<linearGradient id="SVGID_8_" gradientUnits="userSpaceOnUse" x1="141.7522" y1="58.3118" x2="141.7522" y2="21.1338">
			<stop  offset="0" style="stop-color:#C7C9CA"/>
			<stop  offset="1" style="stop-color:#FFFFFF"/>
		</linearGradient>
		<path fill="url(#SVGID_8_)" d="M159.507,58.201l1.273-4.544c-0.5-0.047-1.197,0.029-1.625-0.019
			c-1.786-0.214-2.683-0.497-3.184-0.77c-0.618-0.322-0.928-0.893-0.928-1.702c0-1.346,0.905-3.906,2.702-7.655
			c1.797-3.762,2.703-6.381,2.703-7.869c0-1.75-1.655-3.522-4.963-5.297c-1.822-1.012-3.31-1.881-4.452-2.595
			c0.25-0.476,0.428-0.94,0.536-1.404c0.119-0.465,0.166-0.964,0.166-1.5c0-1.13-0.357-2.023-1.072-2.702
			c-0.726-0.678-1.702-1.011-2.94-1.011c-1.345,0-2.464,0.535-3.357,1.606c-0.893,1.06-1.332,2.405-1.332,4.024
			c0,0.821,0.119,1.535,0.369,2.166c0.25,0.631,0.631,1.202,1.154,1.714c-3.035,8.238-5.713,14.01-8.035,17.332
			c-2.321,3.321-4.868,5.213-7.665,5.69c0,0-2.869,0.583-2.714-2.095c0,0-3.417,0-3.417,3.309c0,1.774,2.131,3.345,4.821,3.345
			c4.405-0.251,8.214-2.285,11.415-6.096c3.214-3.808,6.321-10.069,9.333-18.783c1.404,0.809,2.393,1.488,2.976,2.011
			c0.582,0.524,0.88,1.037,0.88,1.537c0,1.034-0.857,3.392-2.547,7.07c-1.702,3.678-2.56,6.452-2.56,8.321
			c0,2.095,0.893,3.667,2.667,4.594c1.524,0.811,3.88,1.31,7.071,1.43C157.269,58.332,159.507,58.201,159.507,58.201z"/>
		<linearGradient id="SVGID_10_" gradientUnits="userSpaceOnUse" x1="221.2283" y1="58.3555" x2="221.2283" y2="25.6899">
			<stop  offset="0" style="stop-color:#C7C9CA"/>
			<stop  offset="1" style="stop-color:#FFFFFF"/>
		</linearGradient>
		<path fill="url(#SVGID_10_)" d="M193.152,58.221l1.282-4.555c2.362-0.091,4.365-1.192,6.006-3.308
			c1.643-2.113,3.138-5.545,4.488-10.292c0.608-2.16,1.25-4.78,1.924-7.863c0.945-4.342,2.384-6.513,4.319-6.513
			c1.823,0,3.115,0.107,3.88,0.32c0.765,0.214,1.147,0.568,1.147,1.063c0,0.383-0.708,2.312-2.125,5.788
			c-1.418,3.476-2.667,6.845-3.747,10.106c3.735-6.028,6.89-10.313,9.466-12.856c2.576-2.542,5.023-3.813,7.339-3.813
			c1.351,0,2.424,0.376,3.224,1.13c0.797,0.754,1.197,1.783,1.197,3.088c0,0.9-0.349,2.294-1.046,4.184
			c-0.698,1.89-1.845,4.557-3.442,7.998c4.387-6.726,7.728-11.141,10.023-13.245c2.294-2.104,4.623-3.155,6.985-3.155
			c1.621,0,2.897,0.405,3.831,1.215c0.933,0.81,1.4,1.901,1.4,3.273c0,1.597-1.429,5.895-4.286,12.891l-0.54,1.351
			c-0.519,1.26-0.934,2.48-1.248,3.662c-0.316,1.181-0.473,2.03-0.473,2.547c0,0.81,0.332,1.389,0.997,1.738
			c0.663,0.349,1.906,0.579,3.729,0.693l-1.283,4.555h-0.405c-3.892,0-6.721-0.484-8.487-1.451
			c-1.767-0.967-2.649-2.509-2.649-4.623c0-1.44,0.911-4.387,2.733-8.842c0.517-1.282,0.923-2.272,1.216-2.97
			c0.831-2.136,1.383-3.61,1.653-4.419c0.27-0.812,0.404-1.384,0.404-1.722c0-0.406-0.067-0.691-0.202-0.861
			c-0.135-0.167-0.36-0.252-0.674-0.252c-0.99,0-2.857,1.738-5.602,5.214c-2.746,3.476-5.288,7.542-7.627,12.199
			c-0.63,1.283-1.272,2.768-1.924,4.455c-0.811,2.092-2.148,3.139-4.017,3.139c-1.686,0-2.857-0.101-3.509-0.304
			c-0.652-0.202-0.979-0.562-0.979-1.08c0-0.405,0.523-1.811,1.569-4.218c1.046-2.408,1.908-4.478,2.582-6.21
			c1.755-4.411,2.863-7.328,3.325-8.758c0.46-1.428,0.691-2.469,0.691-3.122c0-0.426-0.119-0.753-0.354-0.979
			c-0.236-0.225-0.557-0.337-0.961-0.337c-1.125,0-3.055,1.682-5.788,5.045c-2.734,3.363-4.977,7.024-6.733,10.984
			c-0.765,1.711-1.518,3.493-2.261,5.35c-0.742,1.855-1.159,2.84-1.248,2.953c-0.293,0.337-0.737,0.579-1.333,0.725
			c-0.597,0.146-1.559,0.219-2.886,0.219c-0.876,0-1.501-0.084-1.873-0.252c-0.371-0.168-0.557-0.444-0.557-0.826
			c0-0.316,0.203-0.967,0.608-1.958c0.067-0.158,0.111-0.282,0.135-0.372c-0.967,0.99-2.103,1.761-3.409,2.312
			C196.335,57.81,194.838,58.131,193.152,58.221z"/>
		<linearGradient id="SVGID_12_" gradientUnits="userSpaceOnUse" x1="265.4463" y1="58.2207" x2="265.4463" y2="26.0996">
			<stop  offset="0" style="stop-color:#C7C9CA"/>
			<stop  offset="1" style="stop-color:#FFFFFF"/>
		</linearGradient>
		<path fill="url(#SVGID_12_)" d="M280.143,45.193c0,8.407-8.294,8.807-8.294,8.807h-0.473c-1.62,0-2.987-0.353-4.101-0.724
			c-1.114-0.372-2.143-1.08-3.088-1.958c3.24-2.452,5.832-5.323,7.779-8.529c1.944-3.206,2.919-6.157,2.919-8.812
			c0-2.43-0.682-4.357-2.042-5.763c-1.361-1.406-3.211-2.115-5.551-2.115c-4.186,0-7.814,1.663-10.883,4.993
			c-3.071,3.33-4.607,7.243-4.607,11.741c0,1.936,0.202,3.623,0.608,5.062c0.404,1.44,1.034,2.722,1.889,3.846
			c-1.236,0.541-3.768,1.989-6.816,1.924l-1.283,4.555c6.415-0.397,9.63-2.339,11.812-3.374c1.394,1.146,3.048,1.886,4.96,2.437
			c1.912,0.551,4.128,0.716,6.648,0.716h0.911c8.993,0,14.16-5.635,14.16-8.948C284.692,44.501,280.143,45.193,280.143,45.193z
			 M261.488,47.726c-0.562-0.652-0.968-1.378-1.215-2.176c-0.248-0.798-0.372-1.75-0.372-2.853c0-2.901,0.72-5.45,2.16-7.643
			c1.441-2.193,3.094-3.291,4.961-3.291c0.9,0,1.586,0.253,2.06,0.76c0.472,0.507,0.707,1.244,0.707,2.211
			c0,1.934-0.798,4.201-2.396,6.799C265.797,44.132,263.827,46.196,261.488,47.726z"/>
		<linearGradient id="SVGID_14_" gradientUnits="userSpaceOnUse" x1="292.8491" y1="68.1084" x2="292.8491" y2="5.2397">
			<stop  offset="0" style="stop-color:#C7C9CA"/>
			<stop  offset="1" style="stop-color:#FFFFFF"/>
		</linearGradient>
		<path fill="url(#SVGID_14_)" d="M303.846,14.418c-2.34-0.629-4.483-1.097-6.43-1.4c-1.945-0.304-3.763-0.456-5.449-0.456
			c-2.542,0-4.725,0.327-6.547,0.979c-1.823,0.652-3.094,1.563-3.812,2.733c-0.676-0.271-1.182-0.664-1.52-1.181
			c-0.337-0.517-0.506-1.136-0.506-1.856c0-2.452,1.236-4.398,3.712-5.838c2.475-1.439,5.871-2.16,10.191-2.16
			c2.61,0,5.535,0.281,8.774,0.843c3.24,0.562,7.042,1.474,11.406,2.733c-2.587,10.754-4.881,19.691-6.884,26.811
			c-2.003,7.121-3.712,12.425-5.129,15.912c-2.272,5.603-5.112,9.764-8.52,12.487c-3.41,2.721-7.51,4.082-12.302,4.082
			c-3.936,0-8.797-1.73-8.797-5.375c0-2.827,2.055-3.262,2.055-3.262s2.855,1.584,6.338,1.584c2.947,0,5.41-0.798,7.39-2.396
			c1.979-1.597,3.78-4.274,5.399-8.033c1.237-2.856,2.818-7.535,4.742-14.038C299.881,30.088,301.843,22.698,303.846,14.418z"/>
		<linearGradient id="SVGID_16_" gradientUnits="userSpaceOnUse" x1="319.0981" y1="58.5459" x2="319.0981" y2="7.2983">
			<stop  offset="0" style="stop-color:#C7C9CA"/>
			<stop  offset="1" style="stop-color:#FFFFFF"/>
		</linearGradient>
		<path fill="url(#SVGID_16_)" d="M308.34,54.915c-0.99,1.011-4.135,3.631-10.407,3.631l1.315-4.88
			c2.491,0.583,6.645-1.114,8.164-2.936c1.519-1.823,2.997-4.983,4.438-9.483l7.052-22.003c0.517-1.574,1.08-3.531,1.688-5.872
			c1.057-4.049,2.891-6.074,5.5-6.074c1.8,0,3.021,0.118,3.662,0.354c0.641,0.237,0.961,0.647,0.961,1.231
			c0,0.63-0.438,2.014-1.315,4.151c-0.36,0.855-0.63,1.519-0.811,1.991l-11.001,27.873c3.51-5.691,6.721-9.847,9.635-12.468
			c2.912-2.621,5.766-3.932,8.555-3.932c1.417,0,2.52,0.378,3.308,1.131c0.787,0.753,1.181,1.805,1.181,3.155
			c0,1.508-1.316,5.546-3.948,12.114l-0.811,2.06c-0.562,1.348-1.007,2.609-1.332,3.779c-0.327,1.171-0.489,2.003-0.489,2.497
			c0,0.833,0.314,1.417,0.945,1.754c0.629,0.338,1.214,0.516,3.082,0.629l-0.619,4.602h-0.776c-3.689,0-6.395-0.494-8.116-1.484
			c-1.721-0.989-2.582-2.542-2.582-4.657c0-0.967,0.326-2.452,0.979-4.455c0.652-2.003,1.643-4.556,2.971-7.661l0.27-0.641
			c1.148-2.587,1.722-4.117,1.722-4.589c0-0.383-0.097-0.665-0.287-0.844c-0.192-0.18-0.489-0.269-0.894-0.269
			c-1.327,0-3.38,1.686-6.158,5.061c-2.779,3.375-5.214,7.47-7.306,12.284c-0.429,0.968-0.89,2.149-1.385,3.543
			c-0.944,2.565-2.79,3.847-5.534,3.847c-0.9,0-1.53-0.084-1.89-0.252c-0.36-0.168-0.54-0.466-0.54-0.894
			c0-0.226,0.062-0.523,0.186-0.896C307.872,55.943,308.07,55.477,308.34,54.915z"/>
		<linearGradient id="SVGID_18_" gradientUnits="userSpaceOnUse" x1="357.1211" y1="58.3555" x2="357.1211" y2="25.4873">
			<stop  offset="0" style="stop-color:#C7C9CA"/>
			<stop  offset="1" style="stop-color:#FFFFFF"/>
		</linearGradient>
		<path fill="url(#SVGID_18_)" d="M363.552,46.005c-2.408,4.274-4.792,7.401-7.154,9.381c-2.363,1.979-4.894,2.969-7.593,2.969
			c-1.282,0-2.391-0.213-3.358-0.54c-1.137-0.383-2.243-1.585-2.243-1.585c-1.68,1-3.779,1.825-6.111,1.99l0.619-4.602
			c1.772-0.222,3.237-0.769,3.905-1.472c0,0-0.157-0.961-0.202-1.468c-0.046-0.507-0.067-1.051-0.067-1.637
			c0-1.867,0.404-3.908,1.214-6.125c0.811-2.216,1.946-4.393,3.409-6.529c2.249-3.24,4.741-5.709,7.474-7.408
			c2.734-1.699,5.562-2.548,8.488-2.548c1.462,0,2.722,0.214,3.779,0.641c1.057,0.428,2.059,1.114,3.004,2.059l0.472-1.518
			c0.292-0.922,0.585-1.507,0.878-1.755c0.292-0.248,0.72-0.371,1.282-0.371c1.552,0,2.907,0.265,4.066,0.793
			c1.159,0.528,1.737,1.153,1.737,1.872c0,0.225-0.483,1.282-1.45,3.173c-0.968,1.889-1.823,3.689-2.565,5.398
			c-1.485,3.396-2.605,6.305-3.358,8.723c-0.754,2.419-1.13,4.281-1.13,5.585c0,0.901,0.28,1.524,0.843,1.873
			c0.562,0.349,0.738,0.495,2.741,0.677l-0.817,4.638l0,0c-3.532,0-6.018-0.371-7.458-1.114c-1.439-0.742-2.16-2.002-2.16-3.779
			c0-0.787,0.136-1.754,0.406-2.902C362.472,49.279,362.921,47.805,363.552,46.005z M366.993,33.215
			c-0.607-0.473-1.209-0.821-1.805-1.046c-0.597-0.224-1.199-0.337-1.806-0.337c-1.327,0-2.852,0.573-4.573,1.721
			c-1.721,1.146-3.368,2.711-4.943,4.689c-1.439,1.823-2.581,3.752-3.425,5.788c-0.844,2.037-1.266,3.818-1.266,5.348
			c0,1.103,0.19,1.918,0.574,2.447c0.382,0.529,0.967,0.794,1.754,0.794c2.205,0,4.623-1.643,7.256-4.928
			C361.392,44.408,364.136,39.582,366.993,33.215z"/>
		<linearGradient id="SVGID_20_" gradientUnits="userSpaceOnUse" x1="385.0283" y1="58.225" x2="385.0283" y2="11.2466">
			<stop  offset="0" style="stop-color:#C7C9CA"/>
			<stop  offset="1" style="stop-color:#FFFFFF"/>
		</linearGradient>
		<path fill="url(#SVGID_20_)" d="M371.204,58.221l1.027-4.638c2.506,0,3.147-0.821,4.496-2.325c1.47-1.637,2.385-4.24,3.464-8.087
			l2.834-10.022h-3.273c-0.495,0-0.832-0.062-1.012-0.185c-0.181-0.124-0.271-0.344-0.271-0.659c0-0.045,0.006-0.101,0.018-0.168
			c0.011-0.067,0.05-0.202,0.118-0.405l0.54-1.62c0.135-0.427,0.365-0.72,0.691-0.877s0.974-0.237,1.94-0.237h2.497l3.307-10.933
			c0.181-0.585,0.395-1.395,0.642-2.43c0.697-2.924,2.093-4.387,4.186-4.387c1.484,0,2.642,0.186,3.476,0.557
			c0.831,0.371,1.248,0.894,1.248,1.568c0,0.451-0.259,1.316-0.776,2.599c-0.27,0.675-0.472,1.215-0.607,1.62l-3.882,11.406h5.67
			c0.428,0,0.753,0.062,0.979,0.186c0.225,0.124,0.337,0.32,0.337,0.59c0,0.113-0.006,0.214-0.017,0.304
			c-0.012,0.09-0.028,0.181-0.051,0.27l-0.573,1.62c-0.135,0.428-0.384,0.731-0.743,0.91c-0.36,0.181-0.99,0.271-1.89,0.271h-4.96
			l-3.308,10.9c-0.382,1.215-0.663,2.267-0.844,3.155c-0.18,0.889-0.27,1.614-0.27,2.176c0,1.283,0.608,2.284,1.822,3.004
			c1.215,0.721,3.025,1.147,5.433,1.283l-1.316,4.555h-0.809c-2.993,0-5.501-0.354-7.525-1.062
			c-2.025-0.709-3.487-1.738-4.388-3.087C377.975,55.308,375.519,58.355,371.204,58.221z"/>
	</g>
</g>
</svg>
