<?xml version="1.0" encoding="utf-8"?>
<!-- Generator: Adobe Illustrator 17.0.2, SVG Export Plug-In . SVG Version: 6.00 Build 0)  -->
<!DOCTYPE svg PUBLIC "-//W3C//DTD SVG 1.1//EN" "http://www.w3.org/Graphics/SVG/1.1/DTD/svg11.dtd">
<svg version="1.1" id="Layer_1" xmlns="http://www.w3.org/2000/svg" xmlns:xlink="http://www.w3.org/1999/xlink" x="0px" y="0px"
	 width="485px" height="74px" viewBox="0 0 485 74" enable-background="new 0 0 485 74" xml:space="preserve">
<g>
	<defs>
		<rect id="SVGID_1_" x="-248" width="980" height="700"/>
	</defs>
	<clipPath id="SVGID_2_">
		<use xlink:href="#SVGID_1_"  overflow="visible"/>
	</clipPath>
</g>
<g display="none">
	<g display="inline">
		<g>
			<g opacity="0.05">
				<rect x="-208" y="11" width="607" height="332"/>
				<rect x="-208.5" y="11.5" fill="none" stroke="#000000" stroke-miterlimit="10" width="608" height="331"/>
			</g>
			<g>
				<rect x="-208" y="9" fill="#FFFFFF" width="607" height="332"/>
				<rect x="-208.5" y="9.5" fill="none" stroke="#D5D5D5" stroke-miterlimit="10" width="608" height="331"/>
			</g>
		</g>
		<g>
			<path fill="#797979" d="M223.915,40.716l-0.423-1.138h-2.881l-0.423,1.138h-1.621l2.588-6.717h1.793l2.588,6.717H223.915z
				 M222.052,35.429l-1.048,2.89h2.095L222.052,35.429z"/>
			<path fill="#797979" d="M227.408,40.092v2.478h-1.278v-6.717h1.278v0.614c0.373-0.473,0.906-0.735,1.501-0.735
				c1.249,0,2.155,0.926,2.155,2.548c0,1.621-0.906,2.558-2.155,2.558C228.335,40.837,227.812,40.595,227.408,40.092z
				 M229.745,38.279c0-0.836-0.504-1.41-1.239-1.41c-0.412,0-0.876,0.232-1.098,0.554v1.712c0.212,0.312,0.686,0.564,1.098,0.564
				C229.241,39.699,229.745,39.125,229.745,38.279z"/>
			<path fill="#797979" d="M233.279,40.092v2.478h-1.278v-6.717h1.278v0.614c0.373-0.473,0.906-0.735,1.501-0.735
				c1.249,0,2.155,0.926,2.155,2.548c0,1.621-0.906,2.558-2.155,2.558C234.206,40.837,233.683,40.595,233.279,40.092z
				 M235.616,38.279c0-0.836-0.504-1.41-1.239-1.41c-0.412,0-0.876,0.232-1.098,0.554v1.712c0.212,0.312,0.686,0.564,1.098,0.564
				C235.112,39.699,235.616,39.125,235.616,38.279z"/>
			<path fill="#797979" d="M237.871,40.716v-6.717h1.278v6.717H237.871z"/>
			<path fill="#797979" d="M240.298,34.563c0-0.423,0.343-0.755,0.755-0.755c0.424,0,0.766,0.333,0.766,0.755
				s-0.342,0.766-0.766,0.766C240.641,35.329,240.298,34.986,240.298,34.563z M240.419,40.716v-4.864h1.278v4.864H240.419z"/>
			<path fill="#797979" d="M242.654,38.279c0-1.491,1.088-2.548,2.578-2.548c0.997,0,1.602,0.433,1.924,0.876l-0.836,0.786
				c-0.231-0.343-0.584-0.524-1.027-0.524c-0.775,0-1.319,0.564-1.319,1.41c0,0.846,0.544,1.42,1.319,1.42
				c0.443,0,0.796-0.202,1.027-0.534l0.836,0.785c-0.322,0.443-0.927,0.887-1.924,0.887
				C243.742,40.837,242.654,39.78,242.654,38.279z"/>
			<path fill="#797979" d="M250.911,40.716v-0.514c-0.332,0.403-0.906,0.635-1.54,0.635c-0.776,0-1.683-0.524-1.683-1.611
				c0-1.148,0.906-1.571,1.683-1.571c0.654,0,1.218,0.211,1.54,0.594v-0.614c0-0.494-0.423-0.816-1.067-0.816
				c-0.514,0-0.997,0.202-1.399,0.574l-0.504-0.896c0.595-0.534,1.359-0.765,2.125-0.765c1.118,0,2.135,0.443,2.135,1.843v3.142
				H250.911z M250.911,39.548v-0.604c-0.211-0.282-0.614-0.433-1.027-0.433c-0.503,0-0.916,0.272-0.916,0.735
				s0.413,0.725,0.916,0.725C250.297,39.971,250.7,39.83,250.911,39.548z"/>
			<path fill="#797979" d="M253.721,39.498V36.97h-0.806v-1.118h0.806v-1.329H255v1.329h0.986v1.118H255v2.185
				c0,0.312,0.16,0.544,0.442,0.544c0.191,0,0.373-0.071,0.443-0.151l0.271,0.977c-0.19,0.171-0.533,0.312-1.067,0.312
				C254.193,40.837,253.721,40.374,253.721,39.498z"/>
			<path fill="#797979" d="M256.742,34.563c0-0.423,0.343-0.755,0.755-0.755c0.423,0,0.766,0.333,0.766,0.755
				s-0.343,0.766-0.766,0.766C257.085,35.329,256.742,34.986,256.742,34.563z M256.863,40.716v-4.864h1.278v4.864H256.863z"/>
			<path fill="#797979" d="M259.098,38.279c0-1.38,0.967-2.548,2.568-2.548c1.611,0,2.578,1.168,2.578,2.548
				c0,1.379-0.967,2.558-2.578,2.558C260.064,40.837,259.098,39.659,259.098,38.279z M262.914,38.279c0-0.755-0.442-1.41-1.248-1.41
				c-0.796,0-1.239,0.655-1.239,1.41c0,0.765,0.443,1.42,1.239,1.42C262.472,39.699,262.914,39.044,262.914,38.279z"/>
			<path fill="#797979" d="M268.483,40.716v-2.94c0-0.675-0.353-0.907-0.896-0.907c-0.504,0-0.887,0.282-1.108,0.564v3.283H265.2
				v-4.864h1.278v0.625c0.312-0.363,0.917-0.745,1.702-0.745c1.078,0,1.592,0.604,1.592,1.551v3.434H268.483z"/>
			<path fill="#797979" d="M273.649,40.716v-6.717h2.648c2.104,0,3.564,1.339,3.564,3.354c0,2.035-1.46,3.364-3.555,3.364H273.649z
				 M278.402,37.353c0-1.178-0.725-2.095-2.095-2.095h-1.229v4.2h1.219C277.627,39.458,278.402,38.5,278.402,37.353z"/>
			<path fill="#797979" d="M280.536,38.279c0-1.41,1.048-2.548,2.518-2.548c1.46,0,2.438,1.087,2.438,2.668v0.302h-3.615
				c0.09,0.594,0.573,1.087,1.399,1.087c0.413,0,0.977-0.171,1.289-0.473l0.574,0.846c-0.483,0.443-1.249,0.675-2.004,0.675
				C281.654,40.837,280.536,39.84,280.536,38.279z M283.054,36.779c-0.796,0-1.138,0.554-1.188,1.037h2.397
				C284.222,37.353,283.899,36.779,283.054,36.779z"/>
			<path fill="#797979" d="M289.338,40.716v-0.514c-0.332,0.403-0.906,0.635-1.541,0.635c-0.775,0-1.682-0.524-1.682-1.611
				c0-1.148,0.906-1.571,1.682-1.571c0.655,0,1.219,0.211,1.541,0.594v-0.614c0-0.494-0.423-0.816-1.067-0.816
				c-0.514,0-0.997,0.202-1.399,0.574l-0.504-0.896c0.595-0.534,1.359-0.765,2.125-0.765c1.118,0,2.135,0.443,2.135,1.843v3.142
				H289.338z M289.338,39.548v-0.604c-0.211-0.282-0.614-0.433-1.027-0.433c-0.503,0-0.916,0.272-0.916,0.735
				s0.413,0.725,0.916,0.725C288.724,39.971,289.127,39.83,289.338,39.548z"/>
			<path fill="#797979" d="M295.229,40.716v-0.625c-0.382,0.483-0.906,0.746-1.5,0.746c-1.219,0-2.155-0.927-2.155-2.558
				c0-1.581,0.916-2.548,2.155-2.548c0.574,0,1.118,0.242,1.5,0.745v-2.478h1.289v6.717H295.229z M295.229,39.145v-1.722
				c-0.211-0.322-0.674-0.554-1.098-0.554c-0.734,0-1.238,0.574-1.238,1.41c0,0.846,0.504,1.42,1.238,1.42
				C294.555,39.699,295.018,39.467,295.229,39.145z"/>
			<path fill="#797979" d="M297.786,40.716v-6.717h1.278v6.717H297.786z"/>
			<path fill="#797979" d="M300.213,34.563c0-0.423,0.343-0.755,0.755-0.755c0.423,0,0.766,0.333,0.766,0.755
				s-0.343,0.766-0.766,0.766C300.556,35.329,300.213,34.986,300.213,34.563z M300.334,40.716v-4.864h1.278v4.864H300.334z"/>
			<path fill="#797979" d="M306.165,40.716v-2.94c0-0.675-0.353-0.907-0.896-0.907c-0.504,0-0.887,0.282-1.108,0.564v3.283h-1.278
				v-4.864h1.278v0.625c0.312-0.363,0.917-0.745,1.702-0.745c1.078,0,1.592,0.604,1.592,1.551v3.434H306.165z"/>
			<path fill="#797979" d="M308.399,38.279c0-1.41,1.048-2.548,2.518-2.548c1.46,0,2.438,1.087,2.438,2.668v0.302h-3.615
				c0.09,0.594,0.573,1.087,1.399,1.087c0.413,0,0.977-0.171,1.289-0.473l0.574,0.846c-0.483,0.443-1.249,0.675-2.004,0.675
				C309.518,40.837,308.399,39.84,308.399,38.279z M310.917,36.779c-0.796,0-1.138,0.554-1.188,1.037h2.397
				C312.085,37.353,311.763,36.779,310.917,36.779z"/>
			<path fill="#797979" d="M314.119,36.597c0-0.443,0.372-0.815,0.815-0.815s0.815,0.373,0.815,0.815
				c0,0.443-0.372,0.816-0.815,0.816S314.119,37.041,314.119,36.597z M314.119,40.011c0-0.443,0.372-0.815,0.815-0.815
				s0.815,0.373,0.815,0.815c0,0.443-0.372,0.816-0.815,0.816S314.119,40.455,314.119,40.011z"/>
			<path fill="#797979" d="M325.236,40.716v-5.65l-2.275,5.65h-0.343l-2.286-5.65v5.65h-0.836v-6.717h1.199l2.095,5.176l2.084-5.176
				h1.198v6.717H325.236z"/>
			<path fill="#797979" d="M330.654,40.716v-0.554c-0.393,0.443-0.957,0.675-1.611,0.675c-0.816,0-1.692-0.554-1.692-1.611
				c0-1.098,0.866-1.602,1.692-1.602c0.664,0,1.219,0.211,1.611,0.655v-0.876c0-0.645-0.523-1.017-1.229-1.017
				c-0.584,0-1.058,0.202-1.491,0.675l-0.353-0.523c0.524-0.544,1.148-0.806,1.944-0.806c1.037,0,1.883,0.463,1.883,1.641v3.344
				H330.654z M330.654,39.689v-0.926c-0.292-0.393-0.806-0.594-1.329-0.594c-0.716,0-1.209,0.443-1.209,1.058
				c0,0.624,0.493,1.067,1.209,1.067C329.849,40.293,330.362,40.092,330.654,39.689z"/>
			<path fill="#797979" d="M332.778,41.935c0.11,0.05,0.292,0.081,0.413,0.081c0.332,0,0.554-0.111,0.725-0.514l0.322-0.735
				l-2.034-4.915h0.826l1.611,3.988l1.621-3.988h0.815l-2.437,5.851c-0.292,0.705-0.786,0.977-1.431,0.987
				c-0.161,0-0.413-0.03-0.544-0.07L332.778,41.935z"/>
			<path fill="#797979" d="M340.009,39.729l0.493-0.524c0.394,0.524,1.078,0.886,1.873,0.886c0.978,0,1.571-0.493,1.571-1.259
				c0-0.836-0.685-1.188-1.672-1.188c-0.281,0-0.594,0-0.694,0.01v-0.766c0.11,0.01,0.423,0.01,0.694,0.01
				c0.847,0,1.562-0.333,1.562-1.108c0-0.745-0.685-1.148-1.501-1.148c-0.735,0-1.278,0.282-1.772,0.816l-0.463-0.524
				c0.483-0.594,1.259-1.037,2.306-1.037c1.289,0,2.267,0.655,2.267,1.783c0,0.977-0.816,1.46-1.44,1.561
				c0.604,0.061,1.551,0.574,1.551,1.662c0,1.118-0.906,1.934-2.387,1.934C341.258,40.837,340.422,40.333,340.009,39.729z"/>
			<path fill="#797979" d="M347.118,40.716v-5.62l-1.078,1.148l-0.503-0.513l1.682-1.732h0.735v6.717H347.118z"/>
			<path fill="#797979" d="M349.696,41.995l-0.383-0.312c0.322-0.211,0.614-0.604,0.654-0.937c-0.021,0.01-0.091,0.02-0.141,0.02
				c-0.272,0-0.483-0.222-0.483-0.514s0.231-0.543,0.533-0.543c0.343,0,0.635,0.282,0.635,0.765
				C350.512,41.089,350.159,41.663,349.696,41.995z"/>
			<path fill="#797979" d="M354.207,40.716v-0.675c2.417-1.893,3.736-3.011,3.736-4.169c0-0.866-0.715-1.229-1.41-1.229
				c-0.806,0-1.43,0.342-1.822,0.846l-0.514-0.534c0.514-0.685,1.39-1.057,2.336-1.057c1.118,0,2.256,0.634,2.256,1.974
				c0,1.37-1.39,2.619-3.263,4.099h3.293v0.745H354.207z"/>
			<path fill="#797979" d="M360.098,37.363c0-1.642,0.725-3.464,2.568-3.464c1.832,0,2.567,1.823,2.567,3.464
				c0,1.631-0.735,3.475-2.567,3.475C360.822,40.837,360.098,38.994,360.098,37.363z M364.378,37.363
				c0-1.339-0.434-2.719-1.712-2.719c-1.279,0-1.713,1.38-1.713,2.719s0.434,2.729,1.713,2.729
				C363.944,40.092,364.378,38.702,364.378,37.363z"/>
			<path fill="#797979" d="M367.54,40.716v-5.62l-1.078,1.148l-0.503-0.513l1.682-1.732h0.735v6.717H367.54z"/>
			<path fill="#797979" d="M372.675,40.716v-1.702h-3.192v-0.695l2.88-4.32h1.148v4.28h0.946v0.735h-0.946v1.702H372.675z
				 M372.675,34.774l-2.356,3.505h2.356V34.774z"/>
		</g>
		<line fill="none" stroke="#EAEAEA" stroke-miterlimit="10" x1="-209" y1="63.5" x2="399" y2="63.5"/>
	</g>
	<g display="inline">
		<g>
			<g opacity="0.05">
				<rect x="415" y="11" width="277" height="187"/>
				<rect x="414.5" y="11.5" fill="none" stroke="#000000" stroke-miterlimit="10" width="277" height="186"/>
			</g>
			<g>
				<rect x="415" y="9" fill="#FFFFFF" width="277" height="187"/>
				<rect x="414.5" y="9.5" fill="none" stroke="#D5D5D5" stroke-miterlimit="10" width="277" height="186"/>
			</g>
		</g>
		<line fill="none" stroke="#EAEAEA" stroke-miterlimit="10" x1="414" y1="63.5" x2="691" y2="63.5"/>
		<g>
			<path fill="#424242" d="M447.004,41.555v-8.073l-3.155,8.073h-1.041l-3.155-8.073v8.073h-2.384V30.36h3.341l2.719,6.999
				l2.719-6.999h3.357v11.195H447.004z"/>
			<path fill="#424242" d="M451.602,42.814c0.185,0.084,0.47,0.134,0.672,0.134c0.554,0,0.923-0.151,1.124-0.587l0.303-0.705
				l-3.29-8.208h2.282l2.115,5.64l2.132-5.64h2.282l-3.81,9.433c-0.604,1.527-1.679,1.93-3.072,1.964
				c-0.234,0-0.788-0.051-1.04-0.135L451.602,42.814z"/>
			<path fill="#424242" d="M464.541,41.555V30.36h5.237c2.434,0,3.76,1.645,3.76,3.608c0,1.947-1.343,3.592-3.76,3.592h-2.854v3.995
				H464.541z M471.104,33.968c0-0.939-0.722-1.51-1.662-1.51h-2.518v3.004h2.518C470.383,35.462,471.104,34.892,471.104,33.968z"/>
			<path fill="#424242" d="M474.98,41.555v-8.107h2.132v1.091c0.587-0.705,1.577-1.292,2.585-1.292v2.082
				c-0.151-0.034-0.336-0.05-0.588-0.05c-0.705,0-1.645,0.403-1.997,0.923v5.354H474.98z"/>
			<path fill="#424242" d="M480.502,37.493c0-2.299,1.611-4.247,4.28-4.247c2.686,0,4.297,1.947,4.297,4.247
				c0,2.3-1.611,4.263-4.297,4.263C482.113,41.756,480.502,39.793,480.502,37.493z M486.863,37.493c0-1.259-0.738-2.35-2.081-2.35
				c-1.326,0-2.064,1.091-2.064,2.35c0,1.276,0.738,2.367,2.064,2.367C486.125,39.86,486.863,38.769,486.863,37.493z"/>
		</g>
	</g>
</g>
<g>
	<g>
		<path fill="#FFFFFF" d="M104.117,49.042c0,2.005,0.054,6.109,0.16,7.587h-5.691c0.265-2.528,0.372-9.272,0.372-12.697V32.288
			c0-3.372-0.107-10.166-0.372-12.699c1.898,0,6.639-0.261,10.324-0.261c8.96,0,13.489,5.11,13.489,10.903
			c0,6.906-4.48,12.594-15.383,12.594c-0.895,0-1.95-0.051-2.9-0.107V49.042z M108.072,23.804c-1.477,0-2.428,0.056-3.955,0.162
			v14.486c0.95,0.107,2.005,0.158,2.951,0.158c6.269,0,10.01-2.791,10.01-7.585C117.079,26.439,114.286,23.804,108.072,23.804z"/>
		<path fill="#FFFFFF" d="M149.686,56.996l-9.536-14.96h-5.849v7.006c0,2.005,0.055,6.109,0.16,7.587h-5.691
			c0.265-2.528,0.372-9.272,0.372-12.697V32.288c0-3.372-0.107-10.166-0.372-12.699c1.898,0,7.269-0.207,9.696-0.261
			c9.216-0.158,14.326,4.954,14.172,10.747c-0.16,5.11-2.793,8.535-7.798,10.749l5.426,7.954c1.422,2.003,4.322,6.06,5.533,7.534
			L149.686,56.996z M139.835,37.714c4.743,0,7.48-3.211,7.48-6.953c0-4.531-2.793-6.957-8.324-6.957
			c-1.738,0-3.267,0.056-4.691,0.162v13.747H139.835z"/>
		<path fill="#FFFFFF" d="M159.274,39.087c0-11.381,7.743-20.393,19.017-20.393c10.749,0,18.022,8.537,18.022,18.492
			c0,11.384-7.749,20.393-19.022,20.393C166.542,57.579,159.274,49.042,159.274,39.087z M190.992,38.137
			c0-9.327-5.637-15.071-13.122-15.071c-7.903,0-13.276,6.957-13.276,15.071c0,9.327,5.637,15.071,13.12,15.071
			C185.615,53.208,190.992,46.251,190.992,38.137z"/>
		<path fill="#FFFFFF" d="M210.479,19.589c2.05,0,4.002-0.051,5.689-0.261c-0.107,1.525-0.16,5.742-0.16,7.798v19.124
			c0,7.692-2.633,11.328-9.799,11.328c-1.791,0-4.745-0.527-6.692-1.424l0.316-4.847c2.007,0.999,4.164,1.689,6.323,1.689
			c3.427,0,4.687-2.163,4.687-5.798V32.288C210.842,28.916,210.738,22.121,210.479,19.589z"/>
		<path fill="#FFFFFF" d="M247.827,56.842c-3.162-0.214-7.059-0.265-10.801-0.265c-3.741,0-7.694,0.051-10.747,0.265
			c0.26-2.53,0.367-9.485,0.367-12.91V32.288c0-3.372-0.107-10.482-0.367-13.011c3.054,0.156,6.639,0.26,10.376,0.26
			c3.743,0,7.324-0.105,10.489-0.26c-0.265,1.529-0.372,2.895-0.423,4.582c-3.113-0.056-6.323-0.107-10.066-0.107
			c-1.578,0-3.263,0-4.792,0.051c-0.051,1.001-0.051,2.426-0.051,3.216v7.956l12.853-0.107c-0.105,1.268-0.156,3.004-0.156,4.533
			l-12.697-0.105v9.743c0,0.792,0,2.266,0.051,3.265c1.58,0,3.214,0.056,4.792,0.056c4.271,0,7.959-0.056,11.537-0.158
			C247.985,53.68,247.88,55.151,247.827,56.842z"/>
		<path fill="#FFFFFF" d="M283.12,53.362c-3.528,2.74-7.587,4.217-12.063,4.217c-10.8,0-18.441-8.586-18.441-18.492
			c0-11.381,8.219-20.393,19.438-20.393c3.95,0,8.172,1.317,10.963,3.321l-1.478,4.74c-2.635-2.054-6.214-3.372-9.797-3.372
			c-8.061,0-13.805,6.323-13.805,14.595c0,9.639,5.951,14.96,13.438,14.96c4.948,0,8.584-1.999,12.116-5.321L283.12,53.362z"/>
		<path fill="#FFFFFF" d="M317.311,23.966c-4.053-0.056-7.587-0.107-12.329-0.107c-0.051,1.157-0.051,2.528-0.051,3.423v21.759
			c0,2.005,0.051,6.109,0.162,7.587h-5.697c0.265-2.528,0.374-9.272,0.374-12.697V32.499c0-2.212,0-5.691-0.109-8.64
			c-4.741,0-8.482,0.051-12.486,0.107c0.156-1.317,0.207-3.058,0.207-4.689c4.747,0.156,9.276,0.26,14.969,0.26
			c5.74,0,10.532-0.105,15.383-0.26C317.471,20.806,317.362,22.277,317.311,23.966z"/>
		<path fill="#FFFFFF" d="M346.442,26.281c-2.844-0.051-5.795-0.102-9.169-0.102c-1.58,0-3.211,0-4.74,0.051
			c-0.105,0.897-0.105,2.212-0.105,2.896v5.851h11.533c-0.102,1.894-0.154,4.006-0.154,6.321l-11.379-0.051v7.796
			c0,2.054,0.053,6.109,0.207,7.587h-9.011c0.265-2.528,0.374-9.272,0.374-12.697V32.288c0-3.372-0.109-10.482-0.374-13.011
			c3.534,0.156,7.484,0.26,11.855,0.26c4.111,0,7.956-0.105,11.326-0.26C346.595,21.538,346.442,23.595,346.442,26.281z"/>
		<path fill="#FFFFFF" d="M376.307,56.842c-3.425-0.214-7.427-0.265-11.539-0.265c-4.215,0-8.533,0.051-12.065,0.265
			c0.267-2.53,0.372-9.541,0.372-12.962V32.288c0-3.372-0.105-10.166-0.372-12.699c2.054,0,7.273-0.051,9.011-0.261
			c-0.158,1.525-0.209,5.742-0.209,7.798v19.754c0,0.737,0,2.005,0.103,2.953c1.373,0,2.844,0.051,4.266,0.051
			c4.061,0,7.538-0.051,10.912-0.156C376.52,51.991,376.411,54.258,376.307,56.842z"/>
		<path fill="#FFFFFF" d="M379.046,39.087c0-11.593,7.796-20.393,19.282-20.393c10.956,0,18.229,8.326,18.229,18.492
			c0,11.593-7.798,20.393-19.282,20.393C386.317,57.579,379.046,49.253,379.046,39.087z M408.288,38.241
			c0-7.954-4.427-12.853-10.431-12.853c-6.321,0-10.54,5.795-10.54,12.641c0,7.956,4.427,12.855,10.431,12.855
			C404.071,50.885,408.288,45.093,408.288,38.241z"/>
		<path fill="#FFFFFF" d="M462.964,46.618c-1.634,4.478-2.58,7.273-3.525,10.329l-5.43,0.472l-8.482-24.288l-5.008,14.649
			c-0.997,3.002-2.154,6.005-3.32,9.481h-5.473l-9.381-26.818c-1.104-3.265-2.58-7.531-3.848-10.692l9.065-0.423l7.48,24.868
			l5.215-16.071c0.69-2.105,2.264-6.637,2.9-8.693l5.163-0.474l8.375,25.08l4.531-15.755l2.481-8.639h8.793L462.964,46.618z"/>
	</g>
	<g display="none">
		<g display="inline">
			<g>
				<path fill="#F45D58" d="M59,23.889C59,24.503,58.503,25,57.889,25H19.111C18.497,25,18,24.503,18,23.889v-4.778
					C18,18.497,18.497,18,19.111,18h38.778C58.503,18,59,18.497,59,19.111V23.889z"/>
			</g>
			<g>
				<path fill="#49B9F0" d="M70,38.936C70,39.524,69.524,40,68.936,40H30.064C29.476,40,29,39.524,29,38.936v-4.873
					C29,33.476,29.476,33,30.064,33h38.873C69.524,33,70,33.476,70,34.064V38.936z"/>
			</g>
			<g>
				<path fill="#49B9F0" d="M70,53.936C70,54.524,69.524,55,68.936,55H30.064C29.476,55,29,54.524,29,53.936v-4.873
					C29,48.476,29.476,48,30.064,48h38.873C69.524,48,70,48.476,70,49.064V53.936z"/>
			</g>
		</g>
	</g>
	<g>
		<g>
			<path fill="#CF565B" d="M62,27.889C62,28.503,61.503,29,60.889,29H16.111C15.497,29,15,28.503,15,27.889v-6.778
				C15,20.497,15.497,20,16.111,20h44.778C61.503,20,62,20.497,62,21.111V27.889z"/>
		</g>
		<g>
			<path fill="#469DCF" d="M75,41.936C75,42.524,74.524,43,73.936,43H29.064C28.476,43,28,42.524,28,41.936v-6.873
				C28,34.476,28.476,34,29.064,34h44.873C74.524,34,75,34.476,75,35.064V41.936z"/>
		</g>
		<g>
			<path fill="#469DCF" d="M75,55.936C75,56.524,74.524,57,73.936,57H29.064C28.476,57,28,56.524,28,55.936v-5.873
				C28,49.476,28.476,49,29.064,49h44.873C74.524,49,75,49.476,75,50.064V55.936z"/>
		</g>
	</g>
</g>
</svg>
