<?xml version="1.0" encoding="UTF-8" standalone="no"?>
<svg width="366px" height="345px" viewBox="0 0 366 345" version="1.1" xmlns="http://www.w3.org/2000/svg" xmlns:xlink="http://www.w3.org/1999/xlink" xmlns:sketch="http://www.bohemiancoding.com/sketch/ns">
    <!-- Generator: Sketch 3.2.2 (9983) - http://www.bohemiancoding.com/sketch -->
    <title>Imported Layers</title>
    <desc>Created with Sketch.</desc>
    <defs></defs>
    <g id="@jancantor" stroke="none" stroke-width="1" fill="none" fill-rule="evenodd" sketch:type="MSPage">
        <g id="NewsCred" sketch:type="MSArtboardGroup" transform="translate(-514.000000, 0.000000)" fill="#FFFFFF" opacity="0.03">
            <g id="Logo" sketch:type="MSLayerGroup" transform="translate(514.000000, -30.000000)">
                <path d="M225.61,159.818685 L200.291,159.818685 L200.291,374.557278 L167.888,374.557278 L68.124,200.975278 C66.85,198.855685 65.387,196.188648 63.777,193.05137 C62.153,189.949185 60.55,186.713648 58.933,183.379852 C57.337,180.053074 55.769,176.726296 54.285,173.385481 C53.788,172.262519 53.284,171.174648 52.815,170.128889 C52.878,171.813333 52.941,173.582 52.969,175.406815 C53.095,179.807426 53.179,184.088722 53.305,188.271759 C53.396,192.447778 53.515,196.300944 53.62,199.831259 C53.732,203.38263 53.788,205.916315 53.788,207.425296 L53.788,346.679722 L78.435,346.679722 L78.715,347.528963 C80.052,351.494426 80.717,355.410759 80.717,359.165667 C80.717,362.94163 80.052,366.857963 78.715,370.823426 L78.435,371.679685 L2.268,371.679685 L1.974,370.823426 C0.672,366.857963 0,362.94163 0,359.165667 C0,355.410759 0.672,351.494426 1.974,347.528963 L2.268,346.679722 L25.949,346.679722 L25.949,159.818685 L2.268,159.818685 L1.974,158.962426 C0.672,154.996963 0,151.073611 0,147.311685 C0,143.563796 0.672,139.640444 1.974,135.660944 L2.268,134.804685 L63.196,134.804685 L157.829,299.087148 C158.9,301.038296 160.139,303.417574 161.532,306.203926 C162.932,309.018352 164.423,312.127556 166.033,315.559611 C167.65,318.998685 169.267,322.550056 170.87,326.213722 L173.068,331.238981 C173.033,329.666833 173.005,328.003444 172.977,326.248815 L172.641,314.366463 C172.529,310.611556 172.424,307.305833 172.333,304.414204 C172.214,301.4945 172.165,299.494222 172.165,298.41337 L172.165,159.818685 L146.538,159.818685 L146.258,158.962426 C144.956,154.996963 144.284,151.073611 144.284,147.311685 C144.284,143.563796 144.956,139.640444 146.258,135.660944 L146.538,134.804685 L225.61,134.804685 L225.89,135.660944 C227.213,139.640444 227.892,143.563796 227.892,147.311685 C227.892,151.073611 227.213,154.996963 225.89,158.962426 L225.61,159.818685 L225.61,159.818685 Z M365.127,0 L223.125,0 L223.125,25.393 L339.801,25.393 L339.801,142.398722 L365.127,142.398722 L365.127,0 L365.127,0 Z" id="Imported-Layers" sketch:type="MSShapeGroup"></path>
            </g>
        </g>
    </g>
</svg>