<?xml version="1.0" encoding="UTF-8" standalone="no"?>
<svg width="251px" height="90px" viewBox="0 0 251 90" version="1.1" xmlns="http://www.w3.org/2000/svg" xmlns:xlink="http://www.w3.org/1999/xlink" xmlns:sketch="http://www.bohemiancoding.com/sketch/ns">
    <!-- Generator: Sketch 3.2.2 (9983) - http://www.bohemiancoding.com/sketch -->
    <title>Imported Layers</title>
    <desc>Created with Sketch.</desc>
    <defs></defs>
    <g id="@jancantor" stroke="none" stroke-width="1" fill="none" fill-rule="evenodd" sketch:type="MSPage">
        <g id="NewsCred" sketch:type="MSArtboardGroup" transform="translate(-565.000000, -109.000000)" fill="#FFFFFF">
            <g id="Logo" sketch:type="MSLayerGroup" transform="translate(565.000000, 109.000000)">
                <path d="M59.6867462,28.4993566 L56.0249723,28.4993566 L56.0249723,59.7023324 L51.3395592,59.7023324 L36.9120887,34.4794102 C36.7276708,34.1710456 36.5161889,33.7842627 36.2829122,33.3284718 C36.0486775,32.877748 35.8168378,32.406756 35.5826031,31.922252 C35.3519609,31.4391957 35.1256298,30.9558981 34.9103158,30.4701877 C34.8387042,30.3070777 34.765895,30.1497587 34.6985945,29.9975067 C34.7067376,30.2419303 34.7160782,30.4986595 34.7203893,30.7645576 C34.7390706,31.4037265 34.7510458,32.0255228 34.7687691,32.6333244 C34.7821813,33.2401609 34.7996651,33.8006702 34.8145143,34.3136461 C34.8308006,34.8292761 34.8387042,35.1972386 34.8387042,35.4170509 L34.8387042,55.651126 L38.403479,55.651126 L38.4439552,55.7744236 C38.6365162,56.3510992 38.7335153,56.9200536 38.7335153,57.4653619 C38.7335153,58.013807 38.6365162,58.5837265 38.4439552,59.159437 L38.403479,59.2841823 L27.3886985,59.2841823 L27.3455878,59.159437 C27.1570983,58.5837265 27.0600992,58.013807 27.0600992,57.4653619 C27.0600992,56.9200536 27.1570983,56.3510992 27.3455878,55.7744236 L27.3886985,55.651126 L30.8133635,55.651126 L30.8133635,28.4993566 L27.3886985,28.4993566 L27.3455878,28.37437 C27.1570983,27.7989008 27.0600992,27.2287399 27.0600992,26.6819839 C27.0600992,26.1376408 27.1570983,25.5677212 27.3455878,24.9893566 L27.3886985,24.8646113 L36.1993254,24.8646113 L49.884334,48.7358445 C50.0392929,49.0195979 50.2186813,49.3653619 50.420583,49.7697587 C50.6227242,50.1784987 50.8382777,50.630429 51.0713149,51.1296515 C51.3043521,51.6293566 51.5388263,52.1449866 51.7704265,52.6770241 L52.0884876,53.4073995 C52.082979,53.1793834 52.0791469,52.9378552 52.0750754,52.6825737 L52.0264561,50.9561662 C52.0101698,50.4106166 51.9953206,49.9302145 51.9819084,49.5096515 C51.9644246,49.0859517 51.9577185,48.7954424 51.9577185,48.6381233 L51.9577185,28.4993566 L48.2516365,28.4993566 L48.2111603,28.37437 C48.0226708,27.7989008 47.9254323,27.2287399 47.9254323,26.6819839 C47.9254323,26.1376408 48.0226708,25.5677212 48.2111603,24.9893566 L48.2516365,24.8646113 L59.6867462,24.8646113 L59.7269828,24.9893566 C59.9185859,25.5677212 60.0167824,26.1376408 60.0167824,26.6819839 C60.0167824,27.2287399 59.9185859,27.7989008 59.7269828,28.37437 L59.6867462,28.4993566 L59.6867462,28.4993566 Z M78.4533073,42.713807 C78.7795115,44.2445308 78.9464456,45.8300268 78.9464456,47.423244 L78.9464456,48.5864879 L63.0977595,48.5864879 C63.1411097,49.4930027 63.3214561,50.3833512 63.6340086,51.2384718 C63.9628473,52.1476408 64.4370649,52.9706702 65.03798,53.6815013 C65.636021,54.392815 66.390458,54.9735925 67.2768616,55.4108043 C68.1579962,55.850429 69.2005563,56.071689 70.372688,56.071689 C72.037958,56.071689 73.4416899,55.8094102 74.5395754,55.2937802 C75.6537471,54.7701877 76.6694828,54.2079893 77.5506174,53.6243164 L77.8334714,53.4399732 L77.8334714,57.8048525 L77.7407834,57.8567292 C76.9255124,58.3298928 75.8477452,58.7982306 74.5328693,59.2501609 C73.2045811,59.7049866 71.8224046,59.9373458 70.4184332,59.9373458 C68.3304389,59.9373458 66.5116469,59.5758981 65.010916,58.8689276 C63.505874,58.1602681 62.2611727,57.1994638 61.3060315,56.0157105 C60.3535248,54.8350938 59.64627,53.4698928 59.2125286,51.957748 C58.7759132,50.455496 58.5550906,48.8687936 58.5550906,47.2345576 C58.5550906,45.6058713 58.7584294,44.0126542 59.1639094,42.4937534 C59.5681918,40.9697855 60.1932968,39.6069973 61.0231775,38.4423056 C61.8516212,37.2723056 62.9334599,36.3252547 64.2361212,35.6301072 C65.5390219,34.9339946 67.1044189,34.5812332 68.8880038,34.5812332 C70.7970887,34.5812332 72.4096679,34.9516086 73.6843073,35.6805362 C74.9560725,36.4080161 75.9988721,37.3852279 76.7815706,38.5863539 C77.5640296,39.7860322 78.1273426,41.1731903 78.4533073,42.713807 L78.4533073,42.713807 Z M64.3589866,40.8609651 C63.9060849,41.6048525 63.5801202,42.4054424 63.3834876,43.236193 C63.2055363,43.9989008 63.1059027,44.7020107 63.0898559,45.3264611 L74.4576651,45.3264611 C74.4440134,44.6178016 74.3604265,43.857748 74.2069046,43.0651206 C74.0399704,42.2182038 73.7446622,41.4202681 73.3231355,40.6942359 C72.9068779,39.9761662 72.3289552,39.3760858 71.598708,38.909437 C70.8710954,38.4493029 69.9310429,38.2145308 68.7953158,38.2145308 C67.7565878,38.2145308 66.8632385,38.4710188 66.1425716,38.9772386 C65.4068158,39.4875603 64.8087748,40.1226273 64.3589866,40.8609651 L64.3589866,40.8609651 Z M115.347912,35.2353619 L106.200543,35.2353619 L106.155995,35.3506971 C105.963434,35.8366488 105.866435,36.3455228 105.866435,36.8640483 C105.866435,37.3852279 105.963434,37.8941019 106.155995,38.3800536 L106.200543,38.4953887 L108.913642,38.4953887 L106.103544,48.5891421 C105.979481,49.0232172 105.839371,49.569008 105.683215,50.2069705 C105.532088,50.8367292 105.375931,51.519571 105.219535,52.2443968 C105.064816,52.9619839 104.918,53.6788472 104.779088,54.3957105 C104.717056,54.7101072 104.659336,55.0114745 104.608082,55.3005362 C104.554194,55.0114745 104.497431,54.7101072 104.435639,54.3957105 L104.017945,52.2456032 C103.879272,51.530429 103.74036,50.8502413 103.60025,50.2125201 C103.463014,49.579866 103.330808,49.0345576 103.204111,48.5917962 L99.6448445,35.2353619 L95.2449198,35.2353619 L91.6358368,48.6354692 C91.5132109,49.0765416 91.3853158,49.6230563 91.2626899,50.2627078 L90.8677481,52.2931367 C90.7290754,53.0109651 90.5971088,53.7287936 90.4744828,54.4442091 C90.4220315,54.7537802 90.3707777,55.0440483 90.3250324,55.3227346 C90.2709046,55.0360858 90.2143817,54.7373727 90.1578588,54.4198391 C90.0165515,53.6947721 89.8697357,52.9648794 89.7133397,52.2443968 C89.5598177,51.5260858 89.4048588,50.8393834 89.2510973,50.185496 C89.0961384,49.537882 88.9562681,48.982681 88.8310076,48.5401609 L85.9734876,38.4953887 L88.7809513,38.4953887 L88.824062,38.3800536 C89.0182996,37.8941019 89.1150592,37.3852279 89.1150592,36.8640483 C89.1150592,36.3455228 89.0182996,35.8366488 88.824062,35.3506971 L88.7809513,35.2353619 L79.0784122,35.2353619 L79.0300324,35.3506971 C78.8360344,35.8366488 78.7390353,36.3455228 78.7390353,36.8640483 C78.7390353,37.3852279 78.8360344,37.8941019 79.0300324,38.3800536 L79.0784122,38.4953887 L81.4765639,38.4953887 L87.7815019,59.422681 L92.178792,59.422681 L95.692313,46.4472386 C95.8161365,46.0401877 95.9562462,45.5040483 96.1097681,44.8484718 C96.2647271,44.1943432 96.4278292,43.5090885 96.6002719,42.7936729 C96.7700802,42.066193 96.9262366,41.3334048 97.0663464,40.6112332 C97.1269408,40.285496 97.1849008,39.9694102 97.2373521,39.6665952 C97.296749,39.9708579 97.3602176,40.2881501 97.4301527,40.6167828 C97.5848721,41.3454692 97.7479742,42.0770509 97.9192195,42.7936729 L98.4027777,44.8484718 C98.5562996,45.5057373 98.7019179,46.0457373 98.8204723,46.4421716 L102.336628,59.422681 L106.736792,59.422681 L112.95,38.4953887 L115.347912,38.4953887 L115.391023,38.3800536 C115.585021,37.8941019 115.68226,37.3852279 115.68226,36.8640483 C115.68226,36.3455228 115.585021,35.8366488 115.391023,35.3506971 L115.347912,35.2353619 L115.347912,35.2353619 Z M133.663009,48.1140483 C133.09299,47.525067 132.376394,47.0176408 131.527832,46.6033512 C130.68406,46.197748 129.673833,45.8314745 128.526131,45.5165952 L124.584377,44.4904021 C123.066162,44.0939678 121.965403,43.6842627 121.318742,43.2740751 C120.704415,42.8860858 120.408149,42.2413673 120.408149,41.3008311 C120.408149,40.1132172 120.825844,39.2786059 121.688057,38.7492225 C122.568952,38.2075335 123.619895,37.9348794 124.816217,37.9348794 C125.80896,37.9348794 126.673569,38.0786863 127.393038,38.3650938 C128.112508,38.6529491 128.71462,39.0262198 129.190275,39.473807 C129.66569,39.920429 130.017281,40.4268901 130.236667,40.9736461 C130.457969,41.526193 130.571254,42.0770509 130.571254,42.6119839 L130.571254,43.7165952 L130.686934,43.7614745 C131.710573,44.1482574 132.828817,44.1497051 133.917362,43.7614745 L134.03879,43.7192493 L134.03879,35.3424933 L133.925505,35.2949598 C132.987608,34.9190349 131.883256,34.8961126 130.827044,35.2949598 L130.711124,35.337185 L130.711124,37.0336729 C130.253193,36.4608579 129.603898,35.9505362 128.77258,35.5123592 C127.712297,34.9583646 126.337066,34.6746113 124.676107,34.6746113 C123.676418,34.6746113 122.679603,34.802252 121.71081,35.0548794 C120.734114,35.3087131 119.839567,35.7278284 119.055671,36.2965416 C118.266027,36.8708043 117.614097,37.6308579 117.123594,38.5549866 C116.63309,39.4793566 116.384006,40.6085791 116.384006,41.908874 C116.384006,43.5727882 116.891754,44.9136193 117.899586,45.8934853 C118.889695,46.8629759 120.21942,47.5793566 121.849722,48.0189812 L126.435502,49.2811528 C127.201675,49.498311 127.883302,49.7212601 128.460028,49.9519303 C129.026933,50.1784987 129.512168,50.4446381 129.898727,50.7445576 C130.277383,51.0365147 130.562632,51.3837265 130.7516,51.7758177 C130.940329,52.1708043 131.034215,52.6538606 131.034215,53.2172654 C131.034215,54.3071582 130.595444,55.0795174 129.692754,55.5789812 C128.76324,56.0921984 127.577696,56.3510992 126.160552,56.3510992 C125.255227,56.3510992 124.382475,56.2280429 123.571276,55.9860322 C122.757681,55.7442627 122.035338,55.3915013 121.423885,54.9369169 C120.812192,54.4888472 120.324562,53.9353351 119.968899,53.2906166 C119.611799,52.6526542 119.431452,51.9360322 119.431452,51.1598123 L119.431452,50.008874 L119.322239,49.9652011 C118.410208,49.5977212 117.40525,49.5501877 116.181865,49.9615818 L116.059239,50.0035657 L116.059239,59.0831903 L116.172524,59.1295174 C117.107547,59.5042359 118.093584,59.5310188 119.21997,59.1324129 L119.34092,59.0916354 L119.34092,57.2863271 C120.109009,58.0953619 121.054809,58.7072654 122.159401,59.1078016 C123.409611,59.5650402 124.804002,59.7971582 126.300661,59.7971582 C127.574822,59.7971582 128.776652,59.6369437 129.874537,59.3237534 C130.972423,59.0086327 131.93427,58.5499464 132.734692,57.9621716 C133.543017,57.3758445 134.180097,56.6565684 134.64234,55.8287131 C135.104343,54.9926542 135.33738,54.0506702 135.33738,53.0288204 C135.33738,51.957748 135.200144,51.0104558 134.933337,50.2151743 C134.663895,49.4143432 134.238057,48.7085791 133.663009,48.1140483 L133.663009,48.1140483 Z M161.675375,24.872815 L161.552749,24.9135925 L161.552749,27.4446917 C160.43714,26.3181233 159.181661,25.4726542 157.809065,24.9244504 C156.310729,24.3272654 154.680666,24.0244504 152.968453,24.0244504 C150.447676,24.0244504 148.200651,24.5579357 146.298511,25.6111528 C144.395893,26.66437 142.787625,28.0650402 141.510351,29.7723861 C140.234514,31.4797319 139.265721,33.4640751 138.630078,35.6696783 C137.994435,37.8697319 137.6735,40.1578552 137.6735,42.4720375 C137.6735,44.8742895 138.003536,47.1720643 138.654508,49.2975603 C139.306198,51.4312601 140.30876,53.3207775 141.63178,54.9219571 C142.956954,56.5236193 144.648091,57.8048525 146.656809,58.7292225 C148.665288,59.6562466 151.03949,60.1228954 153.710676,60.1228954 C155.044472,60.1228954 156.325578,59.962681 157.512559,59.6506971 C158.692834,59.3358177 159.791917,58.958445 160.783463,58.5214745 C161.777883,58.0816086 162.661652,57.5985523 163.41058,57.0773727 C164.15424,56.5643968 164.752281,56.096059 165.191531,55.6851475 L165.248293,55.6306166 L165.248293,50.0901877 L164.936938,50.4308847 C164.571934,50.8299732 164.051732,51.3526005 163.391659,51.9876676 C162.740927,52.6147721 161.931405,53.2254692 160.989436,53.8091421 C160.043635,54.392815 158.964671,54.8975871 157.777929,55.3101877 C156.596697,55.7213405 155.260026,55.9290885 153.802166,55.9290885 C152.34742,55.9290885 150.932671,55.6684987 149.601748,55.147319 C148.27346,54.6314477 147.079533,53.813244 146.051823,52.7151475 C145.021238,51.6184987 144.183214,50.1934584 143.560743,48.4832172 C142.941147,46.7650134 142.623086,44.6641287 142.623086,42.2372654 C142.623086,40.6411528 142.808941,38.978445 143.172747,37.3010188 C143.539188,35.6342091 144.142977,34.0964879 144.960643,32.7324933 C145.778309,31.3740483 146.852244,30.2460322 148.152271,29.3788472 C149.445592,28.5169705 151.050028,28.0785523 152.922708,28.0785523 C154.284287,28.0785523 155.502404,28.2780965 156.545203,28.6742895 C157.57986,29.066622 158.455486,29.6189276 159.145496,30.3152815 C159.837902,31.0101877 160.368882,31.8380429 160.728616,32.7720643 C161.090507,33.713807 161.273967,34.7453083 161.273967,35.8378552 L161.273967,38.217185 L161.403299,38.2538606 C162.727276,38.6350938 163.982036,38.6350938 165.304816,38.2538606 L165.434148,38.217185 L165.434148,24.9162466 L165.310085,24.8754692 C164.19759,24.4983378 162.910736,24.4819303 161.675375,24.872815 L161.675375,24.872815 Z M182.095231,35.3547989 C181.635623,35.2746917 181.133144,35.2353619 180.606475,35.2353619 C179.780427,35.2353619 178.994854,35.3806166 178.264607,35.6682306 C177.542982,35.9534316 176.874766,36.3223592 176.276486,36.7677748 C175.678445,37.2127078 175.166146,37.7109651 174.756834,38.2497587 C174.541281,38.5335121 174.357821,38.81437 174.19903,39.0940214 L174.19903,35.2353619 L167.405025,35.2353619 L167.360717,35.3506971 C167.166719,35.8366488 167.068282,36.3455228 167.068282,36.8640483 C167.068282,37.3837802 167.166719,37.8941019 167.360717,38.3800536 L167.405025,38.4953887 L170.498217,38.4953887 L170.498217,56.0227078 L167.405025,56.0227078 L167.360717,56.1378016 C167.166719,56.6266488 167.068282,57.1343164 167.068282,57.6530831 C167.068282,58.172815 167.166719,58.6826542 167.360717,59.1673995 L167.405025,59.2841823 L178.127611,59.2841823 L178.172158,59.1673995 C178.365677,58.6826542 178.466748,58.172815 178.466748,57.6530831 C178.466748,57.1343164 178.365677,56.6266488 178.172158,56.1378016 L178.127611,56.0227078 L174.802579,56.0227078 L174.802579,46.8600804 C174.802579,45.3614477 174.977656,44.1021716 175.325416,43.1141019 C175.670062,42.1313405 176.110749,41.3440214 176.632149,40.7714477 C177.152112,40.2041823 177.723568,39.7942359 178.326878,39.5582574 C178.938331,39.3176944 179.531103,39.1958445 180.094656,39.1958445 C180.781552,39.1958445 181.344626,39.2704021 181.771661,39.4195174 C182.212348,39.5729759 182.567772,39.7237802 182.83434,39.8743432 L183.074323,40.0072922 L183.485072,35.7686059 L183.362685,35.7172118 C182.981635,35.5569973 182.55436,35.4349062 182.095231,35.3547989 L182.095231,35.3547989 Z M203.428075,42.713807 C203.75404,44.2445308 203.920974,45.8300268 203.920974,47.423244 L203.920974,48.5864879 L188.069893,48.5864879 C188.115638,49.4930027 188.296224,50.3833512 188.608777,51.2384718 C188.94025,52.1476408 189.414468,52.9706702 190.012509,53.6815013 C190.613663,54.392815 191.364029,54.9735925 192.25163,55.4108043 C193.132764,55.850429 194.175324,56.071689 195.347696,56.071689 C197.012966,56.071689 198.416698,55.8094102 199.513146,55.2937802 C200.63115,54.7701877 201.641616,54.2108847 202.52802,53.6243164 L202.808479,53.4399732 L202.808479,57.8048525 L202.71651,57.8567292 C201.904592,58.3298928 200.82395,58.7982306 199.507877,59.2501609 C198.181984,59.7049866 196.797173,59.9373458 195.393441,59.9373458 C193.306405,59.9373458 191.486415,59.5758981 189.985445,58.8689276 C188.482079,58.1602681 187.237138,57.1994638 186.28056,56.0157105 C185.32949,54.8350938 184.622236,53.4698928 184.187297,51.957748 C183.750921,50.455496 183.530098,48.8687936 183.530098,47.2345576 C183.530098,45.6058713 183.734395,44.0126542 184.138677,42.4937534 C184.54272,40.9697855 185.168065,39.6069973 185.995311,38.4423056 C186.829024,37.2723056 187.909665,36.3252547 189.212326,35.6301072 C190.513551,34.9339946 192.082061,34.5812332 193.862772,34.5812332 C195.773294,34.5812332 197.384197,34.9516086 198.659075,35.6805362 C199.930601,36.4080161 200.97364,37.3852279 201.757536,38.5863539 C202.539037,39.7860322 203.103308,41.1731903 203.428075,42.713807 L203.428075,42.713807 Z M189.334713,40.8609651 C188.88229,41.6048525 188.554888,42.4054424 188.358016,43.236193 C188.180304,43.9989008 188.080671,44.7020107 188.064385,45.3264611 L199.430757,45.3264611 C199.419979,44.6178016 199.336871,43.857748 199.181673,43.0651206 C199.014499,42.2169973 198.718233,41.4188204 198.297904,40.6942359 C197.883083,39.9761662 197.301089,39.3760858 196.573476,38.909437 C195.847301,38.4493029 194.905572,38.2145308 193.771042,38.2145308 C192.731356,38.2145308 191.839444,38.4710188 191.114705,38.9772386 C190.381584,39.4875603 189.783303,40.1226273 189.334713,40.8609651 L189.334713,40.8609651 Z M230.318606,57.6530831 C230.318606,58.2068365 230.202686,58.7222252 229.973481,59.1811528 L229.925101,59.2841823 L222.819741,59.2841823 L222.819741,56.4666756 C222.612331,56.8387399 222.367319,57.1830563 222.089973,57.4950402 C221.631802,58.0041555 221.094116,58.4481233 220.495836,58.8131903 C219.897795,59.1770509 219.241554,59.460563 218.549149,59.6506971 C217.856983,59.8405898 217.152123,59.9373458 216.461155,59.9373458 C214.428246,59.9373458 212.713159,59.5175067 211.360442,58.6952011 C210.013233,57.8755496 208.923251,56.8208847 208.124266,55.55437 C207.328395,54.297748 206.758376,52.880429 206.430974,51.3390885 C206.106207,49.807882 205.94071,48.2853619 205.94071,46.8166488 C205.94071,45.0914477 206.160335,43.461555 206.59695,41.9752279 C207.035961,40.4809383 207.682621,39.1714745 208.527591,38.0856836 C209.37759,36.9928954 210.425419,36.1283646 211.651439,35.5123592 C212.874824,34.8946649 214.307057,34.5812332 215.904548,34.5812332 C216.905434,34.5812332 217.808364,34.7182842 218.581482,34.9897319 C219.352205,35.2582842 220.029761,35.5963271 220.596667,35.9913137 C221.165489,36.3901609 221.644975,36.8165147 222.022673,37.261689 C222.233676,37.5087668 222.423842,37.746193 222.585507,37.9674531 L222.585507,26.7702949 L219.594823,26.7702949 L219.546203,26.6684718 C219.316998,26.2124397 219.202515,25.6951206 219.202515,25.1387131 C219.202515,24.5849598 219.316998,24.0719839 219.546203,23.6106434 L219.594823,23.5100268 L226.934177,23.5100268 L226.934177,56.0227078 L229.925101,56.0227078 L229.973481,56.1245308 C230.202686,56.5861126 230.318606,57.1005362 230.318606,57.6530831 L230.318606,57.6530831 Z M222.563712,44.6436193 C222.429111,43.6080161 222.136916,42.6052279 221.699103,41.6603485 C221.265122,40.7253619 220.634748,39.9300804 219.826423,39.2976676 C219.03151,38.6732172 217.959011,38.3527882 216.645333,38.3527882 C215.272976,38.3527882 214.160002,38.6732172 213.347605,39.2976676 C212.522993,39.9327346 211.887111,40.7186059 211.453609,41.638874 C211.015796,42.5671046 210.723362,43.5539678 210.587084,44.5731635 C210.449848,45.6058713 210.379913,46.5015282 210.379913,47.2345576 C210.379913,48.5239946 210.51188,49.7374263 210.771741,50.8393834 C211.026334,51.933378 211.422473,52.8970777 211.950579,53.700563 C212.474614,54.4987399 213.125345,55.1297051 213.887926,55.5816354 C214.6438,56.0294638 215.542418,56.2577212 216.552885,56.2577212 C217.115958,56.2577212 217.767648,56.1274263 218.487357,55.8692493 C219.198444,55.6171046 219.877677,55.1610724 220.505416,54.5134584 C221.133395,53.8660858 221.674434,52.9663271 222.111289,51.8438606 C222.5503,50.7146381 222.771362,49.2461662 222.771362,47.4710188 C222.771362,46.6388204 222.702624,45.687185 222.563712,44.6436193 L222.563712,44.6436193 Z M250.646492,0 L230.423509,0 L230.423509,3.63329759 L247.040044,3.63329759 L247.040044,20.376193 L250.646492,20.376193 L250.646492,0 L250.646492,0 Z M23.026376,80.4394906 L9.20940076,80.4394906 L9.20940076,66.5223056 L0,66.5223056 L0,89.7189008 L23.026376,89.7189008 L23.026376,80.4394906 L23.026376,80.4394906 Z" id="Imported-Layers" sketch:type="MSShapeGroup"></path>
            </g>
        </g>
    </g>
</svg>