<?xml version="1.0" encoding="UTF-8" standalone="no"?>
<svg width="355px" height="80px" viewBox="0 0 355 80" version="1.1" xmlns="http://www.w3.org/2000/svg" xmlns:xlink="http://www.w3.org/1999/xlink" xmlns:sketch="http://www.bohemiancoding.com/sketch/ns">
    <!-- Generator: Sketch 3.2.2 (9983) - http://www.bohemiancoding.com/sketch -->
    <title>Imported Layers</title>
    <desc>Created with Sketch.</desc>
    <defs></defs>
    <g id="@jancantor" stroke="none" stroke-width="1" fill="none" fill-rule="evenodd" sketch:type="MSPage">
        <g id="TeamInsights" sketch:type="MSArtboardGroup" transform="translate(-522.000000, -125.000000)" fill="#FFFFFF">
            <g id="Logo" sketch:type="MSLayerGroup" transform="translate(532.000000, 125.000000)">
                <path d="M102.285118,31.6538976 L102.285118,54.7144769 L95.3504076,54.7144769 L95.3504076,31.6538976 L87.2390815,31.6538976 L87.2390815,25.6626129 L110.396445,25.6626129 L110.396445,31.6538976 L102.285118,31.6538976 L102.285118,31.6538976 Z M129.334882,44.7438125 L129.334882,45.5640682 C129.334882,45.8374868 129.321371,46.0972345 129.293222,46.3433112 L114.653652,46.3433112 C114.707698,46.9174902 114.87659,47.4381248 115.160329,47.9029364 C115.444067,48.367748 115.808874,48.7710404 116.255876,49.1128136 C116.701751,49.4557261 117.201671,49.7223092 117.756764,49.912563 C118.31073,50.103956 118.884963,50.1996525 119.480589,50.1996525 C120.535602,50.1996525 121.427353,50.0014241 122.158093,49.6049671 C122.887707,49.2085102 123.482207,48.6958503 123.941593,48.0658483 L128.564734,51.0199083 C127.617812,52.4154823 126.36801,53.4886503 124.814203,54.2405514 C123.259269,54.9935918 121.454375,55.3695423 119.400647,55.3695423 C117.886248,55.3695423 116.452916,55.1291618 115.101779,54.6518185 C113.749516,54.173336 112.567271,53.4749794 111.553919,52.5578878 C110.540566,51.6419356 109.743395,50.5129447 109.16128,49.1731936 C108.579165,47.8334425 108.289797,46.3011592 108.289797,44.5774828 C108.289797,42.9096295 108.573535,41.3978525 109.141013,40.042152 C109.708491,38.68873 110.478639,37.5392327 111.452583,36.5959386 C112.425402,35.6526445 113.573869,34.9212498 114.899109,34.4006152 C116.224349,33.8811199 117.656554,33.6213722 119.197976,33.6213722 C120.684227,33.6213722 122.050002,33.8742844 123.294174,34.3801088 C124.53722,34.8870724 125.605744,35.6184671 126.497494,36.5754322 C127.390371,37.5335365 128.08508,38.6955655 128.586127,40.0637977 C129.083796,41.4343083 129.334882,42.9927943 129.334882,44.7438125 L129.334882,44.7438125 Z M123.210853,42.1577283 C123.210853,41.0902566 122.879825,40.1743043 122.217768,39.4087323 C121.555711,38.6431603 120.561499,38.2603742 119.237385,38.2603742 C118.587713,38.2603742 117.993213,38.3629062 117.452758,38.5679702 C116.911177,38.7730341 116.439405,39.0532881 116.034064,39.4087323 C115.627597,39.7641765 115.30445,40.1822791 115.060119,40.6607616 C114.816915,41.1392441 114.680675,41.6393723 114.654778,42.1588676 L123.210853,42.1588676 L123.210853,42.1577283 L123.210853,42.1577283 Z M132.943544,37.0698641 C134.132545,35.9203668 135.51746,35.0590983 137.099416,34.4849193 C138.681373,33.9107402 140.295981,33.6225115 141.945495,33.6225115 C143.649053,33.6225115 145.088014,33.8344109 146.264629,34.2593489 C147.440119,34.6831477 148.393796,35.3393523 149.12341,36.2279627 C149.853024,37.1177124 150.386723,38.2387286 150.725634,39.5921506 C151.063418,40.9455726 151.23231,42.5541853 151.23231,44.4134317 L151.23231,54.7121985 L145.148815,54.7121985 L145.148815,52.5373814 L145.027213,52.5373814 C144.512655,53.3861183 143.735751,54.0423229 142.695376,54.5071345 C141.655,54.9719461 140.526801,55.2054912 139.309651,55.2054912 C138.498969,55.2054912 137.660138,55.0949845 136.795411,54.8773889 C135.930683,54.658654 135.139142,54.3032098 134.424165,53.8099171 C133.706936,53.3177637 133.119192,52.6615591 132.659805,51.8413033 C132.200419,51.0199083 131.969599,50.0093988 131.969599,48.8040785 C131.969599,47.3264789 132.369311,46.137108 133.166482,45.2348267 C133.963653,44.3314061 134.991643,43.635328 136.2482,43.1420353 C137.505883,42.6498818 138.905436,42.3217795 140.445733,42.1577283 C141.987155,41.9936772 143.488043,41.9105124 144.947271,41.9105124 L144.947271,41.5835493 C144.947271,40.5719005 144.595975,39.8256957 143.892258,39.3472131 C143.188541,38.8687306 142.323813,38.6294893 141.296949,38.6294893 C140.350027,38.6294893 139.438009,38.8345533 138.55977,39.2446812 C137.680405,39.654809 136.930524,40.1481017 136.309001,40.7222808 L132.943544,37.0698641 L132.943544,37.0698641 Z M145.151067,45.810145 L144.298725,45.810145 C143.569111,45.810145 142.831615,45.8443223 142.08849,45.9126769 C141.344239,45.9810316 140.683307,46.1120447 140.101193,46.3022984 C139.519078,46.4936914 139.04055,46.7739455 138.661106,47.1430606 C138.282787,47.5121757 138.093628,47.9986329 138.093628,48.6001538 C138.093628,48.9840791 138.181452,49.3121814 138.358226,49.5856 C138.533874,49.8590185 138.756811,50.0777534 139.027039,50.2418046 C139.297266,50.4058557 139.609153,50.5220586 139.960449,50.5904133 C140.311745,50.6587679 140.649529,50.6929452 140.973802,50.6929452 C142.324939,50.6929452 143.359685,50.3169947 144.076913,49.5650936 C144.793016,48.8131924 145.152193,47.7947082 145.152193,46.5085016 L145.152193,45.810145 L145.151067,45.810145 L145.151067,45.810145 Z M181.974056,54.7144769 L181.974056,43.5533024 C181.974056,42.9791234 181.933522,42.4254507 181.852453,41.8911452 C181.771385,41.357979 181.62276,40.9000028 181.406578,40.5172168 C181.190396,40.1344308 180.899902,39.8268349 180.533969,39.5944291 C180.169162,39.3631625 179.689508,39.2458204 179.093882,39.2458204 C178.526404,39.2458204 178.033239,39.3688588 177.613261,39.6149355 C177.194408,39.8610122 176.843113,40.1891145 176.558248,40.5992424 C176.274509,41.0105095 176.065083,41.4821566 175.929969,42.0153228 C175.79373,42.5484891 175.727299,43.103301 175.727299,43.67748 L175.727299,54.7156162 L169.076327,54.7156162 L169.076327,43.0611489 C169.076327,41.8843098 168.846633,40.9546866 168.386121,40.2711401 C167.925608,39.5875936 167.195994,39.2446812 166.196153,39.2446812 C165.142266,39.2446812 164.323702,39.66848 163.742713,40.5172168 C163.160598,41.3648144 162.870104,42.4049443 162.870104,43.6364672 L162.870104,54.7156162 L156.178597,54.7156162 L156.178597,34.2798553 L162.626899,34.2798553 L162.626899,37.1108769 L162.707967,37.1108769 C162.952298,36.6734072 163.255178,36.2484691 163.619985,35.8383413 C163.984792,35.4282134 164.425037,35.0659338 164.938469,34.7503631 C165.450775,34.4359318 166.026135,34.1830196 166.662295,33.9916266 C167.296203,33.8002335 167.993165,33.704537 168.750928,33.704537 C170.211282,33.704537 171.448698,34.0052975 172.462051,34.6068184 C173.47653,35.2083393 174.266945,36.0707471 174.834422,37.1917633 C175.509991,36.1242915 176.374719,35.2778332 177.429731,34.6478312 C178.484744,34.0178292 179.768324,33.704537 181.282724,33.704537 C182.660884,33.704537 183.817232,33.9574492 184.750642,34.4632736 C185.682927,34.969098 186.433934,35.6264419 187.001411,36.4318874 C187.568889,37.2384723 187.980986,38.1418929 188.238828,39.1410099 C188.495544,40.140127 188.623902,41.1175985 188.623902,42.0745635 L188.623902,54.7133377 L181.974056,54.7133377 L181.974056,54.7144769 L181.974056,54.7144769 Z M194.018316,25.6626129 L200.993561,25.6626129 L200.993561,54.7144769 L194.018316,54.7144769 L194.018316,25.6626129 Z M219.810397,54.7144769 L219.810397,43.5533024 C219.810397,42.9791234 219.763107,42.4322862 219.668527,41.9116516 C219.573948,41.3921563 219.418567,40.9341802 219.202385,40.5377232 C218.986203,40.1412663 218.681071,39.8268349 218.290368,39.5944291 C217.898538,39.3631625 217.404247,39.2458204 216.809747,39.2458204 C216.215246,39.2458204 215.695059,39.3631625 215.248057,39.5944291 C214.802182,39.8268349 214.430619,40.1481017 214.133369,40.5582296 C213.836119,40.9683575 213.612056,41.4411438 213.464556,41.97431 C213.315931,42.5074763 213.240493,43.0622882 213.240493,43.6364672 L213.240493,54.7156162 L206.548987,54.7156162 L206.548987,34.2798553 L212.997288,34.2798553 L212.997288,37.1108769 L213.078356,37.1108769 C213.322687,36.6734072 213.640204,36.2427729 214.032034,35.8178349 C214.423864,35.3940361 214.88325,35.0317564 215.410194,34.7298567 C215.937137,34.4290963 216.51137,34.1830196 217.134019,33.9916266 C217.756668,33.8002335 218.418726,33.704537 219.121317,33.704537 C220.47358,33.704537 221.622046,33.9506138 222.568968,34.4427672 C223.514764,34.9349207 224.278157,35.5717581 224.860271,36.3510011 C225.44126,37.1302441 225.860113,38.02569 226.117955,39.038478 C226.374671,40.0501267 226.503029,41.064054 226.503029,42.0745635 L226.503029,54.7133377 L219.810397,54.7133377 L219.810397,54.7144769 L219.810397,54.7144769 Z M243.412509,40.3121529 C242.872054,39.7926576 242.23702,39.3551878 241.50628,38.9986044 C240.776666,38.6431603 240.005392,38.4654382 239.19471,38.4654382 C238.572061,38.4654382 237.997827,38.5884765 237.470884,38.8345533 C236.94394,39.08063 236.680469,39.5044288 236.680469,40.1070889 C236.680469,40.681268 236.970963,41.0913959 237.553078,41.3374726 C238.134067,41.5846886 239.073107,41.8581071 240.371325,42.1588676 C241.127962,42.3229187 241.891354,42.5553245 242.662628,42.8572242 C243.433902,43.1579847 244.128612,43.5544416 244.751261,44.0465951 C245.372784,44.5387485 245.872704,45.1414087 246.252149,45.852297 C246.630467,46.5631853 246.819626,47.4107829 246.819626,48.3962291 C246.819626,49.6824357 246.56291,50.7704138 246.049478,51.6590242 C245.53492,52.5476346 244.866107,53.2653584 244.041914,53.8133349 C243.216594,54.3613113 242.291065,54.756629 241.264201,55.0038449 C240.236211,55.2499217 239.209347,55.37296 238.181357,55.37296 C236.531844,55.37296 234.916109,55.1052377 233.335279,54.5720714 C231.753322,54.0389052 230.434838,53.2528267 229.380951,52.2126969 L233.112341,48.2321779 C233.706841,48.8895218 234.436455,49.436359 235.301183,49.8738287 C236.165911,50.3112985 237.08581,50.5311726 238.058629,50.5311726 C238.599083,50.5311726 239.133908,50.4012987 239.660852,50.1415511 C240.187795,49.8818034 240.451267,49.4238273 240.451267,48.7664834 C240.451267,48.1376207 240.126994,47.6728091 239.478448,47.3720486 C238.829903,47.0712882 237.815424,46.7557176 236.437264,46.4287545 C235.733547,46.2647034 235.030956,46.0448293 234.328364,45.7714107 C233.625773,45.4979921 232.996368,45.128877 232.442402,44.6629261 C231.888436,44.1981146 231.434679,43.6239355 231.084509,42.9392498 C230.733214,42.2557033 230.557566,41.4354476 230.557566,40.4773433 C230.557566,39.2458204 230.814282,38.1999943 231.327714,37.3375865 C231.841146,36.4751787 232.503203,35.7711259 233.315012,35.2242887 C234.125694,34.6774515 235.0242,34.2730199 236.011656,34.0132722 C236.999112,33.7535245 237.978686,33.6236507 238.951505,33.6236507 C240.465904,33.6236507 241.946525,33.862892 243.392242,34.3413745 C244.837959,34.819857 246.061864,35.5375808 247.061705,36.4956851 L243.412509,40.3121529 L243.412509,40.3121529 Z M257.888817,27.7554043 C257.888817,28.2748996 257.788607,28.7602176 257.584811,29.2113583 C257.381014,29.6636382 257.110787,30.0532597 256.774129,30.381362 C256.435218,30.7094643 256.029877,30.9703512 255.558105,31.1606049 C255.084081,31.3519979 254.58979,31.4476945 254.077484,31.4476945 C252.996575,31.4476945 252.091313,31.0854148 251.360573,30.3608556 C250.629833,29.6362963 250.265026,28.7670531 250.265026,27.7554043 C250.265026,27.2621116 250.358479,26.7916038 250.547639,26.3393239 C250.736798,25.8881832 251.007025,25.4985617 251.360573,25.1704594 C251.711868,24.8423571 252.11721,24.575774 252.576596,24.37071 C253.035983,24.1645068 253.537029,24.0631141 254.077484,24.0631141 C254.58979,24.0631141 255.085207,24.1588106 255.558105,24.3502036 C256.029877,24.5415967 256.435218,24.8024836 256.774129,25.1305859 C257.110787,25.4586882 257.381014,25.8483096 257.584811,26.2994503 C257.788607,26.7494517 257.888817,27.235909 257.888817,27.7554043 L257.888817,27.7554043 Z M250.751435,34.2798553 L257.402407,34.2798553 L257.402407,54.7144769 L250.751435,54.7144769 L250.751435,34.2798553 Z M284.087364,52.7857367 C284.087364,54.7828316 283.802499,56.5201789 283.236148,57.9966392 C282.667544,59.4730996 281.870373,60.697787 280.842383,61.668423 C279.815519,62.6401982 278.564591,63.3636182 277.091852,63.84324 C275.617987,64.3217225 273.988741,64.5609638 272.204114,64.5609638 C270.419487,64.5609638 268.58757,64.286406 266.70949,63.7395688 C264.830283,63.1927316 263.201037,62.3986785 261.821751,61.3608271 L265.146674,56.5600524 C266.120619,57.4349919 267.194773,58.084361 268.370262,58.5092991 C269.545752,58.9342371 270.7021,59.1461365 271.838181,59.1461365 C273.783818,59.1461365 275.225031,58.625502 276.157315,57.5865113 C277.090726,56.5463815 277.557994,55.1656176 277.557994,53.4419413 L277.557994,52.2115576 L277.435266,52.2115576 C276.813743,53.0318134 275.974912,53.6891572 274.921025,54.1801715 C273.868264,54.6723249 272.664626,54.9184016 271.313489,54.9184016 C269.770941,54.9184016 268.405167,54.6392868 267.217292,54.0776395 C266.02604,53.5159921 265.020568,52.7572556 264.195249,51.7991513 C263.369929,50.8421862 262.742776,49.7268662 262.309287,48.4554698 C261.878049,47.1829341 261.661867,45.8352083 261.661867,44.4134317 C261.661867,42.991655 261.878049,41.6370938 262.309287,40.3508872 C262.742776,39.0658198 263.371055,37.9299934 264.195249,36.9456865 C265.020568,35.9613796 266.02604,35.1741619 267.217292,34.586312 C268.405167,33.998462 269.758556,33.704537 271.272955,33.704537 C272.543024,33.704537 273.759047,33.9642847 274.921025,34.48378 C276.084129,35.0032753 277.016413,35.8109994 277.720131,36.9046737 L277.801199,36.9046737 L277.801199,34.2787161 L284.087364,34.2787161 L284.087364,52.7857367 L284.087364,52.7857367 Z M277.760665,44.3746974 C277.760665,43.6911509 277.644692,43.0338071 277.417251,42.4049443 C277.187557,41.7760816 276.855403,41.2224089 276.424165,40.7427872 C275.990675,40.2643046 275.476117,39.8883541 274.881617,39.6149355 C274.287117,39.3426561 273.611548,39.2048076 272.854911,39.2048076 C272.097149,39.2048076 271.428336,39.3426561 270.847347,39.6149355 C270.265232,39.8894933 269.772067,40.2586084 269.366726,40.72342 C268.961385,41.1882316 268.650623,41.7350688 268.434441,42.3650708 C268.217133,42.9950728 268.110168,43.6649483 268.110168,44.3758366 C268.110168,45.0593831 268.217133,45.716727 268.434441,46.3444505 C268.650623,46.9744525 268.961385,47.5281251 269.366726,48.0066076 C269.772067,48.4862294 270.265232,48.8690154 270.847347,49.1549657 C271.428336,49.4420552 272.097149,49.5867392 272.854911,49.5867392 C273.611548,49.5867392 274.293872,49.4431944 274.90301,49.1549657 C275.512148,48.8678762 276.024454,48.4930649 276.443306,48.027114 C276.862159,47.5623024 277.187557,47.0154652 277.417251,46.3854632 C277.644692,45.7554613 277.760665,45.0855857 277.760665,44.3746974 L277.760665,44.3746974 Z M302.659869,54.7144769 L302.659869,43.635328 C302.659869,43.0611489 302.619335,42.5143118 302.538266,41.9936772 C302.457198,41.4741819 302.301817,41.0162057 302.070998,40.6197488 C301.841305,40.2232918 301.537299,39.9088605 301.158981,39.6753154 C300.779536,39.4440489 300.294253,39.327846 299.698627,39.327846 C298.536649,39.327846 297.643772,39.7448093 297.022249,40.578736 C296.3996,41.4138019 296.089965,42.4459571 296.089965,43.67748 L296.089965,54.7156162 L289.438993,54.7156162 L289.438993,23.693999 L296.092217,23.693999 L296.092217,36.8648002 L296.173285,36.8648002 C296.632672,36.0445444 297.36116,35.3131497 298.363253,34.670616 C299.361968,34.0280824 300.565606,33.7068155 301.970789,33.7068155 C303.350075,33.7068155 304.506423,33.9528923 305.438707,34.4450457 C306.372118,34.9371992 307.128754,35.5740366 307.709743,36.3532796 C308.291858,37.1325226 308.709585,38.0279684 308.967427,39.0407565 C309.224143,40.0524052 309.351375,41.0663325 309.351375,42.076842 L309.351375,54.7156162 L302.659869,54.7156162 L302.659869,54.7144769 L302.659869,54.7144769 Z M321.598306,39.2856939 L321.598306,47.112301 C321.598306,48.073823 321.78071,48.7938253 322.145517,49.2745863 C322.510324,49.7553473 323.166751,49.9957278 324.112547,49.9957278 C324.43682,49.9957278 324.78136,49.968386 325.146167,49.9137023 C325.510974,49.8590185 325.816106,49.776993 326.058185,49.6676255 L326.140379,54.5914386 C325.67874,54.7554897 325.097751,54.8990345 324.396286,55.0232121 C323.692569,55.1462505 322.991103,55.2077696 322.287386,55.2077696 C320.936249,55.2077696 319.801294,55.0357438 318.881395,54.6928313 C317.961496,54.3510581 317.225126,53.8577654 316.670034,53.211814 C316.117194,52.5670018 315.717482,51.7991513 315.475404,50.9082624 C315.231073,50.0173735 315.110597,49.0228134 315.110597,47.9257213 L315.110597,39.2856939 L311.865616,39.2856939 L311.865616,34.2798553 L315.070062,34.2798553 L315.070062,28.9037624 L321.598306,28.9037624 L321.598306,34.2798553 L326.343049,34.2798553 L326.343049,39.2856939 L321.598306,39.2856939 L321.598306,39.2856939 Z M341.347426,40.3121529 C340.806971,39.7926576 340.171937,39.3551878 339.441197,38.9986044 C338.711583,38.6431603 337.940309,38.4654382 337.129627,38.4654382 C336.506978,38.4654382 335.932744,38.5884765 335.405801,38.8345533 C334.877732,39.08063 334.61426,39.5044288 334.61426,40.1070889 C334.61426,40.681268 334.90588,41.0913959 335.486869,41.3374726 C336.067858,41.5846886 337.008024,41.8581071 338.305116,42.1588676 C339.061753,42.3229187 339.826271,42.5553245 340.596419,42.8572242 C341.366567,43.1591239 342.061277,43.5544416 342.685052,44.0465951 C343.306575,44.5387485 343.806496,45.1414087 344.18594,45.852297 C344.565384,46.5631853 344.754543,47.4107829 344.754543,48.3962291 C344.754543,49.6824357 344.496701,50.7704138 343.984395,51.6590242 C343.469837,52.5476346 342.799899,53.2653584 341.976831,53.8133349 C341.151511,54.3613113 340.225982,54.756629 339.199118,55.0038449 C338.171128,55.2499217 337.144264,55.37296 336.116274,55.37296 C334.466761,55.37296 332.852152,55.1052377 331.271322,54.5720714 C329.688239,54.0389052 328.370881,53.2528267 327.315868,52.2126969 L331.048384,48.2321779 C331.641758,48.8895218 332.371372,49.436359 333.237226,49.8738287 C334.101954,50.3112985 335.021853,50.5311726 335.995798,50.5311726 C336.536252,50.5311726 337.069951,50.4012987 337.598021,50.1415511 C338.124964,49.8818034 338.38731,49.4238273 338.38731,48.7664834 C338.38731,48.1376207 338.064163,47.6728091 337.415617,47.3720486 C336.765946,47.0712882 335.751467,46.7557176 334.374433,46.4287545 C333.670716,46.2647034 332.966999,46.0448293 332.265533,45.7714107 C331.561816,45.4979921 330.933537,45.128877 330.379571,44.6629261 C329.825605,44.1981146 329.371848,43.6239355 329.021678,42.9392498 C328.670383,42.2557033 328.494735,41.4354476 328.494735,40.4773433 C328.494735,39.2458204 328.751451,38.1999943 329.264883,37.3375865 C329.777189,36.4751787 330.440372,35.7711259 331.251055,35.2242887 C332.061737,34.6774515 332.960243,34.2730199 333.948825,34.0132722 C334.935155,33.7535245 335.915855,33.6236507 336.888674,33.6236507 C338.403073,33.6236507 339.883694,33.862892 341.330537,34.3413745 C342.77738,34.819857 344.000159,35.5375808 345,36.4956851 L341.347426,40.3121529 L341.347426,40.3121529 Z M29.5331441,80 C7.73479971,80 -10,62.055766 -10,40 C-10,17.944234 7.73479971,0 29.5331441,0 C51.3314885,0 69.0662882,17.944234 69.0662882,40 C69.0662882,62.055766 51.3314885,80 29.5331441,80 L29.5331441,80 Z M29.5331441,7.27293441 C11.6981351,7.27293441 -2.8119509,21.9543733 -2.8119509,40 C-2.8119509,58.0456267 11.6981351,72.7270656 29.5331441,72.7270656 C47.3681531,72.7270656 61.8782391,58.0456267 61.8782391,40 C61.8782391,21.9543733 47.3681531,7.27293441 29.5331441,7.27293441 L29.5331441,7.27293441 Z M53.6104063,39.5750619 C53.6104063,52.6319387 43.142472,63.222352 30.2605062,63.222352 C17.3560214,63.222352 6.88921311,52.6319387 6.88921311,39.5750619 C6.88921311,26.5398308 17.3560214,15.9494176 30.2605062,15.9494176 C38.5519839,15.9494176 45.8424942,20.3320897 49.9769736,26.937427 L32.0665261,41.7532967 L23.503695,33.0904845 L18.889562,37.7579676 L31.6296584,50.6485147 L52.7389229,33.1656746 C53.3052745,35.2151747 53.6104063,37.3501182 53.6104063,39.5750619 L53.6104063,39.5750619 Z" id="Imported-Layers" sketch:type="MSShapeGroup"></path>
            </g>
        </g>
    </g>
</svg>