<?xml version="1.0" encoding="UTF-8" standalone="no"?>
<svg width="626px" height="634px" viewBox="0 0 626 634" version="1.1" xmlns="http://www.w3.org/2000/svg" xmlns:xlink="http://www.w3.org/1999/xlink" xmlns:sketch="http://www.bohemiancoding.com/sketch/ns">
    <!-- Generator: Sketch 3.2.2 (9983) - http://www.bohemiancoding.com/sketch -->
    <title>Imported Layers 2</title>
    <desc>Created with Sketch.</desc>
    <defs></defs>
    <g id="@jancantor" stroke="none" stroke-width="1" fill="none" fill-rule="evenodd" sketch:type="MSPage">
        <g id="TeamInsights" sketch:type="MSArtboardGroup" transform="translate(-387.000000, -20.000000)" fill="#FFFFFF" opacity="0.05">
            <g id="Logo" sketch:type="MSLayerGroup" transform="translate(387.000000, -149.000000)">
                <path d="M312.847253,803 C140.345108,803 0,660.791946 0,486 C0,311.208054 140.345108,169 312.847253,169 C485.349398,169 625.694505,311.208054 625.694505,486 C625.694505,660.791946 485.349398,803 312.847253,803 L312.847253,803 Z M312.847253,226.638005 C171.709134,226.638005 56.8829387,342.988408 56.8829387,486 C56.8829387,629.011592 171.709134,745.361995 312.847253,745.361995 C453.985371,745.361995 568.811567,629.011592 568.811567,486 C568.811567,342.988408 453.985371,226.638005 312.847253,226.638005 L312.847253,226.638005 Z M503.383713,482.632366 C503.383713,586.108114 420.54526,670.037139 318.603264,670.037139 C216.483064,670.037139 133.653521,586.108114 133.653521,482.632366 C133.653521,379.328159 216.483064,295.399134 318.603264,295.399134 C384.218233,295.399134 441.912003,330.131811 474.630385,382.479109 L332.895281,499.894876 L265.132946,431.242089 L228.618804,468.231893 L329.43811,570.389479 L496.487191,431.837971 C500.969039,448.08026 503.383713,464.999687 503.383713,482.632366 L503.383713,482.632366 Z" id="Imported-Layers-2" sketch:type="MSShapeGroup"></path>
            </g>
        </g>
    </g>
</svg>