<?xml version="1.0" encoding="UTF-8" standalone="no"?>
<svg width="1760px" height="636px" viewBox="0 0 1760 636" version="1.1" xmlns="http://www.w3.org/2000/svg" xmlns:xlink="http://www.w3.org/1999/xlink" xmlns:sketch="http://www.bohemiancoding.com/sketch/ns">
    <!-- Generator: Sketch 3.2.2 (9983) - http://www.bohemiancoding.com/sketch -->
    <title>Logo BG</title>
    <desc>Created with Sketch.</desc>
    <defs></defs>
    <g id="@jancantor" stroke="none" stroke-width="1" fill="none" fill-rule="evenodd" sketch:type="MSPage">
        <g id="Type-Night-3" sketch:type="MSArtboardGroup" transform="translate(-19.000000, -25.000000)" fill="#FDFDFD" opacity="0.0299999993">
            <g id="Hero" sketch:type="MSLayerGroup" transform="translate(-181.000000, -115.000000)">
                <path d="M452.66614,538.151934 C435.049131,642.481227 408.99879,699.208086 334.831822,713.938875 C284.664208,723.906133 217.890997,699.242128 202.287428,633.140811 C193.261563,594.907553 212.439692,563.471541 233.69462,549.156886 C270.184104,524.60205 319.220039,528.132438 346.272992,538.882663 C346.272992,538.882663 309.523028,548.930331 296.778871,576.875279 C285.844581,600.831445 293.619085,631.327194 326.82793,629.31813 C365.811921,626.959256 387.642956,561.717791 401.886045,495.951611 C415.421029,433.429984 426.200439,332.794833 439.154036,323.368725 C439.154036,323.368725 382.114797,313.395597 346.925952,320.741036 C308.775615,328.682209 286.758607,360.894731 304.678923,389.903198 C314.713853,406.13829 345.806006,414.475055 375.116452,396.411673 C375.116452,396.411673 367.722694,438.891962 306.761589,442.474587 C266.591945,444.821723 232.199207,418.667501 222.110303,391.820113 C202.130201,338.574927 236.422033,286.877478 291.476579,265.134627 C368.301734,234.790893 480.077546,273.801247 590.945199,279.054277 C649.234038,281.811091 662.800701,254.863338 657.206249,232.17729 C650.984064,206.937506 625.326204,196.30232 600.713783,202.231495 C576.588296,208.043284 571.818697,231.56923 571.818697,231.56923 C562.591606,199.357295 581.440615,162.966413 612.69938,147.877597 C654.630783,127.650201 721.05786,144.687628 729.556898,218.710163 C738.761109,299.063334 669.695793,337.399892 611.195167,339.480562 C567.412831,341.034167 502.154981,332.201446 502.154981,332.201446 C486.307945,341.415085 473.463468,415.022661 452.66614,538.151934 L452.66614,538.151934 Z M906.396375,681.901259 C906.396375,727.944217 880.772541,761.767277 831.309513,772.889615 C769.114062,786.869132 702.526825,749.796237 677.773604,739.413432 C663.435474,733.397391 633.949615,716.678081 605.087382,700.869687 C585.917467,743.321217 555.380301,771.948178 510.109592,772.161821 C464.712163,772.376638 416.245882,736.180617 428.672652,681.901259 C442.757929,620.342198 503.142927,614.475825 540.445531,629.180202 C548.255236,632.259827 563.042166,639.727935 581.129681,649.220953 C584.995227,631.737459 590.108026,597.987766 595.177998,561.009366 C573.737683,584.051681 544.553957,598.238972 513.753378,578.417146 C481.498452,557.653883 489.195517,507.180184 499.095515,454.379304 C508.986712,401.57549 499.095515,390.567603 499.095515,390.567603 C533.94292,378.59715 554.075555,399.371565 554.622328,414.773215 C555.181421,430.177214 545.281423,467.579377 539.781425,490.68156 C534.284359,513.78022 532.402333,535.887555 554.622328,535.784255 C573.754696,535.700324 590.943439,518.368258 602.945463,501.950044 C609.585354,449.65862 614.764446,404.725547 614.764446,404.725547 C672.815099,398.919041 661.781075,442.617798 655.89153,473.763867 C652.15329,493.527 637.423267,576.757892 622.252658,647.054592 C620.689192,654.299078 618.917459,661.372181 616.935112,668.239271 C657.863316,690.105377 702.969171,714.276947 724.085646,722.639537 C762.41081,737.81698 817.502317,735.418194 823.890528,681.901259 C830.26994,628.383737 769.640888,603.619953 769.640888,603.619953 C861.694146,574.565706 906.396375,629.025839 906.396375,681.901259 L906.396375,681.901259 Z M570.005897,682.185333 C562.262486,678.251723 555.187874,674.851633 549.228516,672.314918 C518.691937,659.312054 494.910236,667.233272 486.998451,684.29711 C478.402027,702.833558 492.043197,731.354285 526.799081,725.977999 C547.848089,722.717012 560.729526,703.960465 570.005897,682.185333 L570.005897,682.185333 Z M826.391488,444.663839 C823.996715,508.564753 776.79118,535.322927 739.362442,537.21754 C727.605059,537.812101 716.870235,535.894011 709.150876,533.865578 C707.13685,551.25575 705.623251,565.780526 705.259517,572.911735 C700.942825,657.285969 772.900994,663.811465 772.900994,663.811465 C759.563717,680.924019 732.954284,691.241088 711.633063,688.392126 C689.776215,685.477428 662.058568,668.955913 657.856276,627.383607 C654.261183,591.829688 664.310194,550.901831 676.814404,477.644653 C689.320961,404.389823 669.902299,387.948718 669.902299,387.948718 C676.418991,380.821031 684.926829,374.971679 697.805919,375.057957 C716.202021,375.183561 719.402287,387.948718 719.402287,387.948718 C762.516997,342.421085 828.783327,380.760577 826.391488,444.663839 L826.391488,444.663839 Z M723.629806,419.381209 C723.629806,419.381209 718.819141,455.31898 714.109969,492.944765 C733.91583,503.310549 774.079021,496.522695 778.629793,454.694486 C785.367658,392.823178 733.484044,406.986405 723.629806,419.381209 L723.629806,419.381209 Z M1266.07282,680.639944 C1262.88487,687.031034 1240.246,706.307014 1212.16169,706.307014 C1211.78153,706.307014 1211.39843,706.299384 1211.01358,706.287645 C1160.37605,705.490007 1127.61659,651.994201 1105.67057,568.369478 C1093.40748,521.626898 1076.867,471.700805 1076.867,471.700805 C1081.66534,501.560321 1090.69766,661.203732 1016.32184,682.961256 C947.783938,703.010811 904.287895,636.958208 904.287895,594.907553 C904.284962,594.907553 950.012097,643.919794 991.311074,619.089688 C1026.09571,598.177344 1023.35715,498.75714 1018.72248,437.229774 C1018.47256,433.922419 1018.19683,430.661431 1017.89997,427.440942 C992.903287,442.577887 968.087293,453.387391 950.255564,459.345912 C918.174878,470.069725 892.705338,472.740847 878.188862,473.243846 C882.59238,493.144321 897.659737,515.46119 929.484636,507.612752 C957.786602,500.637666 953.444096,466.232371 953.444096,466.232371 C967.815666,461.437734 997.472832,473.078919 995.840139,501.901328 C993.857793,536.939335 959.622868,560.671881 924.60357,560.674815 C893.368271,560.683032 849.531375,539.358077 839.150311,493.83103 C828.774527,448.301049 844.04311,409.301847 876.000009,382.440373 C911.744427,352.394212 954.24607,361.590831 957.786602,393.54569 C961.327721,425.494093 935.881061,439.072736 935.881061,439.072736 C952.84159,435.680863 985.071289,416.136069 1013.47768,391.719748 C1002.13976,319.004894 980.883663,276.397242 980.883663,276.397242 C1009.76056,279.087732 1035.31106,294.825694 1057.30343,316.934203 C1058.8757,297.972817 1054.65346,278.436826 1043.66402,260.950398 C1019.52152,222.521692 967.237213,213.606213 935.646394,242.052987 C897.825177,276.110819 929.484636,303.614396 929.484636,303.614396 C929.484636,303.614396 918.166665,337.861806 872.96929,333.364743 C834.125512,329.496282 813.342851,292.492057 825.683968,254.152565 C846.578096,189.249173 916.178452,154.042131 981.832303,154.042131 C1048.90941,154.042131 1122.03621,204.916703 1115.52774,300.886341 C1114.02118,323.100497 1105.41243,343.405368 1092.6143,361.582614 C1126.31829,413.639852 1146.59408,474.481683 1151.81306,497.972414 C1153.78778,506.862067 1157.57119,518.115878 1162.33258,530.381557 C1175.32079,461.716526 1193.79785,377.576477 1191.98329,315.765624 C1188.91855,211.227383 1162.56959,199.231105 1162.56959,199.231105 C1233.65128,200.549351 1259.12082,240.832171 1256.482,302.181698 C1253.65485,368.041787 1243.12771,448.69664 1225.38984,543.301664 C1204.80782,653.058893 1266.07282,680.639944 1266.07282,680.639944 L1266.07282,680.639944 Z M903.783949,405.447472 C889.372485,412.476555 879.879048,432.991547 877.399795,452.063275 C895.071951,449.356351 910.7688,439.213013 917.083679,429.145389 C924.059144,418.031268 923.377437,395.889891 903.783949,405.447472 L903.783949,405.447472 Z M1959.79542,336.08458 C1954.46732,445.818919 1851.78542,489.096846 1771.3687,465.627832 C1759.38016,462.130312 1746.26758,457.136705 1732.50028,451.528581 C1727.43793,486.526677 1718.24722,542.441811 1713.18898,580.042357 C1707.60332,621.574166 1719.25276,643.079896 1734.63926,647.344535 C1751.99814,652.162063 1771.99526,640.452207 1772.96384,616.194945 C1773.68544,597.999504 1756.19809,582.056704 1756.19809,582.056704 C1784.13925,564.695291 1809.58767,575.339281 1818.66516,594.907553 C1828.13924,615.312788 1827.50857,655.242863 1787.19285,674.567559 C1750.05275,692.369169 1694.21911,683.872759 1675.7972,629.443147 C1665.94472,637.878516 1647.11742,649.601871 1621.78809,645.326667 C1563.23408,635.453905 1582.63866,572.544903 1587.33082,554.077127 C1596.72628,517.06175 1610.08351,492.593193 1594.11973,481.410401 C1580.93733,472.183262 1558.51083,481.308275 1545.24864,491.064238 C1543.77024,498.369766 1542.47078,505.17875 1541.42534,511.318633 C1534.24102,553.466719 1527.23974,594.907553 1551.00443,610.603843 C1551.00443,610.603843 1516.73841,622.674661 1495.36028,598.495461 C1472.75837,572.931691 1493.59559,508.836502 1502.25831,474.253954 C1508.43943,449.575276 1526.43953,393.344373 1533.38859,344.973647 C1506.91644,353.372039 1472.35944,359.955642 1437.63288,350.413908 C1387.86655,336.746638 1375.56885,297.833714 1390.22671,263.274643 C1407.39433,222.799897 1460.36915,203.819143 1507.09361,215.208534 C1549.60758,225.571384 1569.36357,253.009224 1575.65322,285.776982 C1610.16153,265.040718 1646.10777,244.415384 1676.35864,255.106915 C1723.86807,271.892548 1695.36781,334.918349 1653.30792,339.480562 C1653.30792,339.480562 1657.44627,318.485461 1646.48089,313.739538 C1633.0298,307.923641 1605.00298,317.428398 1577.20085,328.356463 C1577.0137,330.368461 1576.79898,332.381047 1576.55082,334.393632 C1572.25994,369.17515 1561.32155,416.859167 1552.2904,458.006536 C1565.42352,447.474064 1587.59893,432.804316 1612.4818,436.470285 C1648.01971,441.706295 1649.62073,483.124239 1642.02339,517.944494 C1634.91124,550.534999 1621.21551,592.603263 1633.30377,605.052651 C1643.67075,615.721292 1659.79528,606.713665 1669.85603,597.17428 C1666.33251,548.140322 1678.93293,479.447704 1683.07949,431.061718 C1663.31118,423.151652 1643.31993,415.948251 1624.24036,411.603202 C1594.85541,404.911604 1584.86741,416.068572 1584.86741,416.068572 C1588.19557,386.088734 1614.63604,384.655449 1642.58249,389.957195 C1655.81064,392.466911 1669.55507,396.058928 1683.3652,399.943822 C1680.00477,366.317384 1664.37891,356.415275 1664.37891,356.415275 C1670.60637,351.402886 1687.47069,336.451412 1713.0822,347.006775 C1735.33212,356.180503 1738.33233,386.973239 1736.6703,414.87182 C1756.12886,419.743932 1774.44987,423.02018 1790.18896,422.178521 C1842.03209,419.395882 1884.74317,394.975453 1884.74317,330.90609 C1884.74317,266.836726 1785.59419,242.167439 1759.39131,309.967921 C1759.39131,309.967921 1729.98935,298.773978 1739.0903,261.580761 C1750.34257,215.598256 1809.53077,195.989486 1852.80505,201.429161 C1881.85208,205.077522 1964.64774,235.974145 1959.79542,336.08458 L1959.79542,336.08458 Z M1523.85702,313.879815 C1527.87393,312.281016 1531.97883,310.406946 1536.15238,308.335667 C1535.95526,296.240784 1534.27974,285.734137 1530.54913,277.807636 C1513.04887,240.61442 1457.09731,245.004662 1448.31491,276.153665 C1439.52899,307.308538 1482.76749,330.235228 1523.85702,313.879815 L1523.85702,313.879815 Z M1953.29809,649.330122 C1935.73271,735.979886 1849.50505,771.155822 1769.66384,769.533545 C1689.82557,767.908921 1517.03585,700.345558 1463.61165,682.752308 C1458.44899,681.05197 1453.52275,679.403868 1448.81123,677.819742 C1441.54478,692.510619 1432.46846,706.109219 1421.29598,716.873529 C1388.18452,748.776151 1319.33393,748.701611 1299.26172,707.759668 C1281.2182,670.947957 1305.39238,617.109383 1377.05253,622.115903 C1388.31124,622.901803 1405.44191,626.904084 1426.45865,632.870235 C1428.65161,623.455279 1430.47203,612.872917 1431.93518,601.017502 C1432.58579,595.745103 1433.09033,590.861252 1433.47342,586.325451 C1388.44676,606.011109 1353.38581,589.707933 1336.58838,559.004997 C1326.45899,570.966647 1303.15073,587.982944 1277.02706,579.999511 C1250.07736,571.768394 1244.78914,549.096432 1247.98002,527.530834 C1251.17736,505.962302 1274.07671,434.997676 1277.02706,423.688694 C1279.41068,414.560746 1273.84439,410.958752 1273.84439,410.958752 C1284.48359,398.019276 1317.55515,398.019276 1324.1927,421.315733 C1330.46299,443.322702 1309.56593,486.792556 1302.37574,513.281916 C1295.19143,539.767754 1302.37574,549.890549 1313.5535,544.304729 C1319.4671,541.348946 1324.26193,536.827818 1327.46747,533.223476 C1325.10849,520.881496 1325.06331,507.525886 1327.64992,493.983045 C1340.81296,425.078546 1388.79172,402.73057 1429.53747,409.310651 C1462.27112,415.70174 1473.28226,439.304574 1471.50349,457.531709 C1469.41554,478.988725 1440.64659,492.395397 1440.64659,492.395397 C1447.96819,457.010515 1423.75118,441.030151 1407.11332,450.702183 C1372.42314,470.880863 1364.87216,547.792272 1406.38585,557.083386 C1417.42809,559.557299 1426.82707,555.848484 1433.80312,551.054433 C1431.88414,532.063114 1426.34659,529.124352 1426.34659,529.124352 C1438.31752,512.355739 1451.09629,508.361088 1463.06722,513.281916 C1475.04695,518.205091 1476.64855,557.083386 1472.64925,593.500093 C1471.05293,608.070649 1467.73005,625.704398 1462.23181,643.629264 C1565.09851,675.813026 1718.2349,731.117752 1776.05147,717.641234 C1809.29786,709.889053 1861.48478,692.880386 1871.86056,624.182486 C1882.24163,555.487521 1822.3641,548.130931 1822.3641,548.130931 C1895.81416,476.873426 1970.86641,562.675075 1953.29809,649.330122 L1953.29809,649.330122 Z M1414.62324,666.506651 C1388.4673,658.358878 1371.21343,655.344402 1356.80549,662.200927 C1339.20549,670.583472 1343.41659,701.770039 1373.30255,697.368058 C1391.03748,694.75563 1404.64756,685.343021 1414.62324,666.506651 L1414.62324,666.506651 Z M1319.42017,387.022541 C1341.88715,387.022541 1360.10549,368.798928 1360.10549,346.318892 C1360.10549,323.838856 1341.88715,305.61759 1319.42017,305.61759 C1296.95319,305.61759 1278.73719,323.838856 1278.73719,346.318892 C1278.73719,368.798928 1296.95319,387.022541 1319.42017,387.022541 L1319.42017,387.022541 Z" id="Logo-BG" sketch:type="MSShapeGroup"></path>
            </g>
        </g>
    </g>
</svg>