<?xml version="1.0" encoding="UTF-8" standalone="no"?>
<svg width="246px" height="90px" viewBox="0 0 246 90" version="1.1" xmlns="http://www.w3.org/2000/svg" xmlns:xlink="http://www.w3.org/1999/xlink" xmlns:sketch="http://www.bohemiancoding.com/sketch/ns">
    <!-- Generator: Sketch 3.2.2 (9983) - http://www.bohemiancoding.com/sketch -->
    <title>logo</title>
    <desc>Created with Sketch.</desc>
    <defs></defs>
    <g id="@jancantor" stroke="none" stroke-width="1" fill="none" fill-rule="evenodd" sketch:type="MSPage">
        <g id="Type-Night" sketch:type="MSArtboardGroup" transform="translate(-577.000000, -103.000000)" fill="#FFFFFF">
            <g id="Hero" sketch:type="MSLayerGroup" transform="translate(-181.000000, -115.000000)">
                <path d="M793.315835,274.342255 C790.853458,289.105834 787.212331,297.13322 776.845811,299.217765 C769.833747,300.628226 760.500673,297.138037 758.31972,287.784077 C757.05815,282.37371 759.73873,277.925218 762.709589,275.899559 C767.809824,272.424818 774.66371,272.924402 778.444975,274.44566 C778.444975,274.44566 773.308332,275.8675 771.527047,279.821973 C769.998731,283.211997 771.085395,287.527433 775.727086,287.243132 C781.175984,286.909329 784.227368,277.677046 786.218163,268.370511 C788.109985,259.523111 789.616652,245.282288 791.427212,243.948404 C791.427212,243.948404 783.454682,242.537113 778.536241,243.576562 C773.203864,244.700313 770.126487,249.258688 772.631258,253.36366 C774.033868,255.661079 778.379703,256.84081 782.476504,254.284671 C782.476504,254.284671 781.443058,260.296032 772.922358,260.803008 C767.307738,261.13515 762.500571,257.43408 761.090417,253.634922 C758.297744,246.100226 763.090807,238.784549 770.785931,235.70773 C781.523992,231.413806 797.147202,236.934139 812.643477,237.677492 C820.790667,238.067607 822.686916,234.254246 821.904964,231.043956 C821.035273,227.472289 817.449003,225.967309 814.008858,226.806344 C810.636773,227.628767 809.970113,230.95791 809.970113,230.95791 C808.680418,226.399617 811.314995,221.249964 815.684118,219.114754 C821.544984,216.252387 830.829678,218.663344 832.017612,229.138231 C833.30411,240.508962 823.650662,245.933947 815.47387,246.228381 C809.354293,246.448231 800.233026,245.198318 800.233026,245.198318 C798.018042,246.502135 796.222735,256.918301 793.315835,274.342255 L793.315835,274.342255 Z M856.734948,294.68414 C856.734948,301.199653 853.153435,305.985935 846.239852,307.559851 C837.546625,309.538085 828.239545,304.29192 824.77972,302.822655 C822.77564,301.971329 818.654321,299.605389 814.620168,297.368352 C811.940737,303.375644 807.672474,307.426629 801.344863,307.456861 C794.999541,307.48726 788.225277,302.365182 789.9622,294.68414 C791.930938,285.972953 800.371114,285.142805 805.585,287.223613 C806.676584,287.65941 808.743394,288.716217 811.271535,290.059569 C811.811833,287.585489 812.526463,282.809589 813.235107,277.576797 C810.238335,280.837502 806.159246,282.845138 801.854165,280.040162 C797.345806,277.101965 798.421646,269.95946 799.805396,262.487637 C801.187915,255.0154 799.805396,253.45768 799.805396,253.45768 C804.676113,251.763748 807.490106,254.703523 807.56653,256.883002 C807.644676,259.062813 806.260926,264.355572 805.492176,267.624749 C804.723837,270.893427 804.460781,274.021824 807.56653,274.007206 C810.240713,273.995329 812.643231,271.542678 814.320786,269.219346 C815.248862,261.819616 815.972758,255.461162 815.972758,255.461162 C824.086656,254.639487 822.5444,260.823273 821.721202,265.230736 C821.198699,268.027406 819.139843,279.805362 817.019406,289.753008 C816.800876,290.778171 816.553236,291.779082 816.276158,292.75084 C821.996804,295.845101 828.301373,299.265606 831.25288,300.448991 C836.609693,302.596742 844.309983,302.257292 845.202881,294.68414 C846.094548,287.110906 837.620261,283.606597 837.620261,283.606597 C850.486795,279.495147 856.734948,287.20177 856.734948,294.68414 L856.734948,294.68414 Z M809.716733,294.72434 C808.634416,294.167697 807.645578,293.686552 806.812622,293.327583 C802.544441,291.487555 799.220408,292.608482 798.114556,295.023176 C796.913011,297.646258 798.819674,301.68221 803.677599,300.921415 C806.619676,300.459954 808.42015,297.805726 809.716733,294.72434 L809.716733,294.72434 Z M845.552447,261.112807 C845.217723,270.15539 838.619676,273.941924 833.38816,274.210029 C831.744798,274.294165 830.244362,274.022737 829.165407,273.735695 C828.883901,276.196568 828.672341,278.251961 828.621501,279.261095 C828.018145,291.200845 838.075934,292.124264 838.075934,292.124264 C836.211747,294.545852 832.492474,296.005814 829.512349,295.602659 C826.457357,295.190202 822.583186,292.852252 821.99582,286.969378 C821.493324,281.938163 822.897902,276.146486 824.64565,265.779904 C826.393725,255.413654 823.679526,253.087083 823.679526,253.087083 C824.590382,252.078448 825.779545,251.250709 827.579691,251.262919 C830.150964,251.280693 830.598274,253.087083 830.598274,253.087083 C836.624535,246.644493 845.88676,252.069893 845.552447,261.112807 L845.552447,261.112807 Z M831.189166,257.535077 C831.189166,257.535077 830.516766,262.62061 829.858552,267.945014 C832.626872,269.41187 838.24059,268.451325 838.876664,262.532239 C839.818434,253.776865 832.56652,255.781095 831.189166,257.535077 L831.189166,257.535077 Z M907.007905,294.505653 C906.562318,295.410052 903.39802,298.137785 899.472599,298.137785 C899.419463,298.137785 899.365917,298.136705 899.312125,298.135044 C892.234379,298.022171 887.6555,290.45201 884.588045,278.618322 C882.873999,272.003806 880.562092,264.938793 880.562092,264.938793 C881.23277,269.164196 882.495241,291.755245 872.09953,294.83414 C862.5198,297.671341 856.44024,288.324275 856.44024,282.37371 C856.43983,282.37371 862.831236,289.309405 868.603707,285.795711 C873.46565,282.836417 873.082874,268.76752 872.435074,260.060817 C872.400142,259.592795 872.361602,259.131335 872.32011,258.675605 C868.826255,260.817626 865.357656,262.347272 862.865266,263.190459 C858.381261,264.70798 854.821314,265.085969 852.792307,265.157148 C853.407799,267.973253 855.513804,271.1313 859.962057,270.020672 C863.9179,269.033632 863.310936,264.164958 863.310936,264.164958 C865.31969,263.486472 869.464953,265.133809 869.236747,269.212452 C868.959669,274.170661 864.17456,277.52904 859.279817,277.529455 C854.913974,277.530618 848.786772,274.512935 847.335782,268.070429 C845.88553,261.627507 848.019662,256.108752 852.486365,252.3076 C857.48246,248.055785 863.42303,249.357193 863.9179,253.879107 C864.412852,258.400107 860.856103,260.321614 860.856103,260.321614 C863.226722,259.841632 867.731555,257.075859 871.701994,253.620719 C870.117263,243.330881 867.146239,237.301496 867.146239,237.301496 C871.182442,237.682226 874.753705,239.909296 877.827639,243.037859 C878.047399,240.354644 877.457245,237.590117 875.921221,235.115622 C872.546758,229.677598 865.238838,228.415974 860.823303,232.44146 C855.536928,237.260965 859.962057,241.152981 859.962057,241.152981 C859.962057,241.152981 858.380113,245.999312 852.062753,245.362935 C846.633452,244.815512 843.728603,239.579065 845.453555,234.153665 C848.373984,224.969223 858.102215,219.987094 867.278833,219.987094 C876.654383,219.987094 886.875516,227.186326 885.965809,240.766935 C885.755233,243.910448 884.551965,246.783778 882.763135,249.35603 C887.474034,256.722621 890.308036,265.332314 891.037507,268.656474 C891.313519,269.914443 891.842337,271.506964 892.507849,273.242673 C894.323247,263.525923 896.905836,251.619313 896.65221,242.872494 C896.223842,228.079347 892.540977,226.38176 892.540977,226.38176 C902.476259,226.568304 906.036206,232.268703 905.66737,240.95024 C905.272212,250.270064 903.800804,261.683487 901.321535,275.07099 C898.44473,290.602674 907.007905,294.505653 907.007905,294.505653 L907.007905,294.505653 Z M856.369802,255.563322 C854.355472,256.558003 853.028549,259.461068 852.682017,262.159897 C855.152102,261.776842 857.346094,260.341464 858.228741,258.9168 C859.203721,257.344047 859.108437,254.210834 856.369802,255.563322 L856.369802,255.563322 Z M1003.97141,245.747818 C1003.22668,261.276262 988.874553,267.400497 977.634488,264.07941 C975.958819,263.584478 974.126037,262.877836 972.201743,262.084233 C971.494166,267.036794 970.209554,274.949313 969.50255,280.270145 C968.721828,286.147288 970.350102,289.190551 972.500715,289.794038 C974.927013,290.475764 977.722064,288.818709 977.857446,285.386077 C977.958306,282.811251 975.514051,280.555194 975.514051,280.555194 C979.419464,278.09839 982.976459,279.604615 984.245244,282.37371 C985.569462,285.261244 985.481312,290.911726 979.846274,293.646353 C974.655101,296.165448 966.851081,294.963126 964.276199,287.260823 C962.899092,288.454507 960.267548,290.113472 956.727199,289.508491 C948.542945,288.111402 951.255177,279.209184 951.911012,276.59582 C953.224242,271.357795 955.091218,267.895263 952.859916,266.312793 C951.017377,265.007065 947.882763,266.298341 946.029072,267.678902 C945.822432,268.712703 945.640802,269.676238 945.494678,270.54509 C944.490506,276.509441 943.511918,282.37371 946.833574,284.594883 C946.833574,284.594883 942.044119,286.303018 939.05604,282.881433 C935.896908,279.263919 938.809384,270.193845 940.020195,265.300088 C940.884147,261.807822 943.400071,253.850619 944.37136,247.005705 C940.671275,248.194156 935.841148,249.125798 930.987324,247.775553 C924.031347,245.841505 922.312464,240.33496 924.361233,235.444525 C926.760799,229.716967 934.165233,227.031011 940.696039,228.642717 C946.638332,230.109158 949.399681,233.991871 950.278803,238.628818 C955.102124,235.694441 960.126426,232.775762 964.354673,234.288714 C970.995196,236.66404 967.011637,245.582785 961.132812,246.228381 C961.132812,246.228381 961.71124,243.257377 960.178578,242.585784 C958.298483,241.762779 954.381098,243.107792 950.495119,244.654216 C950.468961,244.938933 950.438949,245.223733 950.404263,245.508533 C949.804515,250.430446 948.275625,257.178184 947.013318,263.000925 C948.848969,261.510481 951.948486,259.434573 955.426434,259.953342 C960.393664,260.694287 960.617442,266.555317 959.555543,271.482711 C958.561457,276.094575 956.647167,282.047632 958.336777,283.809337 C959.785798,285.319051 962.039568,284.044387 963.445786,282.694474 C962.953294,275.755706 964.714489,266.035053 965.294065,259.187979 C962.530994,258.06863 959.736762,257.049281 957.069959,256.434415 C952.962744,255.487491 951.566695,257.066307 951.566695,257.066307 C952.03188,252.823878 955.727537,252.621054 959.633689,253.371301 C961.482624,253.72645 963.40372,254.234754 965.333999,254.784503 C964.864303,250.026045 962.680234,248.624803 962.680234,248.624803 C963.550664,247.915503 965.907835,245.799728 969.487626,247.293412 C972.597557,248.591581 973.016905,252.949043 972.784599,256.896956 C975.504375,257.586405 978.065152,258.050025 980.265047,257.930923 C987.511304,257.537153 993.481148,254.081432 993.481148,245.015013 C993.481148,235.948593 979.622824,232.457656 975.960377,242.052064 C975.960377,242.052064 971.850784,240.468016 973.122849,235.204825 C974.695609,228.697866 982.968505,225.92304 989.017069,226.692806 C993.077052,227.209083 1004.64963,231.581247 1003.97141,245.747818 L1003.97141,245.747818 Z M943.039107,242.605634 C943.60056,242.379389 944.174314,242.11419 944.757662,241.821085 C944.73011,240.109545 944.495918,238.622755 943.97448,237.501081 C941.528421,232.23789 933.707919,232.85915 932.480379,237.267028 C931.252347,241.675737 937.29591,244.920079 943.039107,242.605634 L943.039107,242.605634 Z M1003.06326,290.075017 C1000.60809,302.336776 988.555819,307.314503 977.396196,307.084936 C966.236983,306.855036 942.085693,297.294183 934.618447,294.804572 C933.896847,294.563958 933.208293,294.330736 932.549751,294.106567 C931.534099,296.185465 930.265478,298.109795 928.70387,299.633047 C924.075791,304.147569 914.452356,304.13702 911.646808,298.343349 C909.124817,293.134145 912.503708,285.515479 922.519842,286.223949 C924.093503,286.335161 926.487903,286.901521 929.42547,287.745788 C929.731986,286.413483 929.986432,284.915979 930.19094,283.238326 C930.281878,282.492232 930.352398,281.801121 930.405944,281.159262 C924.112445,283.944968 919.21188,281.637915 916.864057,277.29316 C915.448245,278.985846 912.190386,281.393813 908.539009,280.264082 C904.772176,279.099301 904.033028,275.891005 904.479026,272.839269 C904.925926,269.787118 908.126631,259.744954 908.539009,258.144626 C908.872175,256.852936 908.094159,256.34322 908.094159,256.34322 C909.581229,254.512162 914.203732,254.512162 915.131479,257.80883 C916.007895,260.923024 913.087056,267.074418 912.082064,270.822913 C911.077892,274.570909 912.082064,276.00338 913.64441,275.212933 C914.47097,274.794662 915.141155,274.15488 915.589203,273.644832 C915.259481,271.898325 915.253167,270.00838 915.614705,268.09194 C917.454539,258.341304 924.160661,255.178854 929.855806,256.109998 C934.431077,257.014397 935.970134,260.354421 935.72151,262.933732 C935.429672,265.970103 931.408557,267.867273 931.408557,267.867273 C932.431917,262.859979 929.04704,260.598606 926.721521,261.96729 C921.87278,264.822764 920.817358,275.706454 926.619841,277.021234 C928.163244,277.371316 929.476966,276.846484 930.452028,276.16808 C930.183806,273.480629 929.409808,273.064767 929.409808,273.064767 C931.083018,270.69185 932.869141,270.126569 934.542351,270.822913 C936.21679,271.519588 936.44065,277.021234 935.881656,282.174541 C935.658534,284.236413 935.194087,286.731754 934.425583,289.268292 C948.803541,293.822598 970.207832,301.648738 978.289012,299.741684 C982.935951,298.644677 990.230259,296.23779 991.680511,286.51639 C993.1315,276.795404 984.762254,275.754377 984.762254,275.754377 C995.02857,265.670768 1005.51883,277.812511 1003.06326,290.075017 L1003.06326,290.075017 Z M927.771202,292.505658 C924.115315,291.352671 921.703696,290.926095 919.689858,291.896358 C917.229859,293.082567 917.818455,297.49576 921.995698,296.872838 C924.474557,296.503155 926.376875,295.171182 927.771202,292.505658 L927.771202,292.505658 Z M914.46441,252.95602 C917.604681,252.95602 920.151108,250.377207 920.151108,247.19607 C920.151108,244.014933 917.604681,241.436451 914.46441,241.436451 C911.324138,241.436451 908.778039,244.014933 908.778039,247.19607 C908.778039,250.377207 911.324138,252.95602 914.46441,252.95602 L914.46441,252.95602 Z" id="logo" sketch:type="MSShapeGroup"></path>
            </g>
        </g>
    </g>
</svg>