<?xml version="1.0" encoding="UTF-8" standalone="no"?>
<svg width="300px" height="110px" viewBox="0 0 300 110" version="1.1" xmlns="http://www.w3.org/2000/svg" xmlns:xlink="http://www.w3.org/1999/xlink" xmlns:sketch="http://www.bohemiancoding.com/sketch/ns">
    <!-- Generator: Sketch 3.2.2 (9983) - http://www.bohemiancoding.com/sketch -->
    <title>logo</title>
    <desc>Created with Sketch.</desc>
    <defs></defs>
    <g id="@jancantor" stroke="none" stroke-width="1" fill="none" fill-rule="evenodd" sketch:type="MSPage">
        <g id="Type-Night" sketch:type="MSArtboardGroup" transform="translate(-550.000000, -103.000000)" fill="#FFFFFF">
            <g id="Hero" sketch:type="MSLayerGroup" transform="translate(-181.000000, -115.000000)">
                <path d="M774.068092,286.862756 C771.065193,304.90713 766.624794,314.71838 753.982697,317.266158 C745.431399,318.990055 734.049602,314.724267 731.389902,303.29165 C729.851403,296.678979 733.120402,291.241933 736.743401,288.766128 C742.9632,284.519222 751.321598,285.129824 755.932896,286.98914 C755.932896,286.98914 749.668698,288.726944 747.496398,293.56019 C745.632599,297.703552 746.957799,302.977974 752.618397,302.630494 C759.263396,302.222513 762.984595,290.938612 765.412394,279.563958 C767.719494,268.750469 769.556893,251.345018 771.764893,249.714717 C771.764893,249.714717 762.042295,247.989805 756.044196,249.260242 C749.541298,250.633715 745.788399,256.205064 748.842998,261.222251 C750.553498,264.030207 755.853296,265.472101 760.849395,262.347931 C760.849395,262.347931 759.589096,269.695151 749.197998,270.314787 C742.3509,270.720738 736.488501,266.197209 734.768802,261.553793 C731.363102,252.34472 737.208301,243.403337 746.592599,239.642781 C759.687796,234.394651 778.740491,241.141725 797.638386,242.050268 C807.573984,242.527076 809.886483,237.866301 808.932883,233.942613 C807.872284,229.577242 803.498785,227.737823 799.303486,228.763309 C795.191187,229.768492 794.378187,233.837445 794.378187,233.837445 C792.805387,228.266199 796.018287,221.972178 801.346485,219.362477 C808.493884,215.864029 819.816681,218.810753 821.26538,231.613393 C822.83428,245.510954 811.061783,252.141491 801.090085,252.501355 C793.627187,252.77006 782.50369,251.242388 782.50369,251.242388 C779.802491,252.835942 777.613091,265.566812 774.068092,286.862756 L774.068092,286.862756 Z M851.408473,311.72506 C851.408473,319.688465 847.040774,325.538366 838.609576,327.46204 C828.008079,329.879881 816.657981,323.467903 812.438683,321.672134 C809.994683,320.631624 804.968684,317.73992 800.048986,315.005764 C796.781386,322.348009 791.576188,327.299213 783.85959,327.336164 C776.121391,327.373318 767.860093,321.113 769.978293,311.72506 C772.379192,301.078053 782.67209,300.063429 789.030488,302.606639 C790.361688,303.139278 792.882187,304.430932 795.965287,306.072806 C796.624186,303.048932 797.495686,297.21172 798.359886,290.816085 C794.705287,294.801391 789.730788,297.255168 784.480689,293.826865 C778.982691,290.235734 780.29469,281.506007 781.98219,272.373779 C783.66819,263.241044 781.98219,261.337164 781.98219,261.337164 C787.922089,259.266803 791.353788,262.859862 791.446988,265.523669 C791.542288,268.187883 789.854788,274.656811 788.917288,278.652471 C787.980289,282.647522 787.659489,286.471118 791.446988,286.453252 C794.708187,286.438735 797.638086,283.441051 799.683886,280.601423 C800.815685,271.557308 801.698485,263.785865 801.698485,263.785865 C811.593483,262.781595 809.712683,270.339556 808.708783,275.726455 C808.071584,279.144607 805.560784,293.539887 802.974885,305.698121 C802.708385,306.951098 802.406385,308.174434 802.068485,309.362138 C809.044883,313.144012 816.733381,317.324629 820.332781,318.770989 C826.865479,321.396019 836.256077,320.981134 837.344976,311.72506 C838.432376,302.468885 828.097879,298.185841 828.097879,298.185841 C843.788775,293.160735 851.408473,302.579941 851.408473,311.72506 L851.408473,311.72506 Z M794.069187,311.774193 C792.749287,311.093851 791.543388,310.505786 790.527588,310.067046 C785.322489,307.818123 781.26879,309.188144 779.920191,312.139437 C778.454891,315.345427 780.78009,320.278257 786.704389,319.348396 C790.292288,318.784389 792.487987,315.540332 794.069187,311.774193 L794.069187,311.774193 Z M837.771276,270.693431 C837.363076,281.745476 829.316678,286.373462 822.93678,286.701147 C820.93268,286.80398 819.102881,286.472235 817.787081,286.121405 C817.443781,289.129139 817.185781,291.641286 817.123781,292.874671 C816.387982,307.467699 828.653579,308.596323 828.653579,308.596323 C826.380179,311.556041 821.84448,313.34044 818.210181,312.847695 C814.484582,312.34358 809.759983,309.486086 809.043683,302.295907 C808.430884,296.146644 810.143783,289.067927 812.275183,276.39766 C814.406982,263.7278 811.096983,260.884212 811.096983,260.884212 C812.207783,259.651436 813.657982,258.639756 815.853282,258.654678 C818.988981,258.676402 819.534481,260.884212 819.534481,260.884212 C826.883579,253.009936 838.178976,259.64098 837.771276,270.693431 L837.771276,270.693431 Z M820.255081,266.320649 C820.255081,266.320649 819.435081,272.536302 818.632381,279.043906 C822.00838,280.83673 828.854378,279.66273 829.630078,272.428292 C830.778578,261.727279 821.93478,264.176894 820.255081,266.320649 L820.255081,266.320649 Z M912.716958,311.506909 C912.173558,312.612286 908.314659,315.946182 903.52756,315.946182 C903.46276,315.946182 903.39746,315.944862 903.33186,315.942832 C894.700462,315.804875 889.116464,306.552456 885.375665,292.089061 C883.285365,284.004652 880.465966,275.369636 880.465966,275.369636 C881.283866,280.534018 882.823465,308.1453 870.145768,311.908393 C858.463171,315.376084 851.049073,303.951891 851.049073,296.678979 C851.048573,296.678979 858.842971,305.155939 865.882569,300.861424 C871.811768,297.244509 871.344968,280.049191 870.554968,269.407665 C870.512368,268.835638 870.465368,268.271631 870.414768,267.714628 C866.153969,270.332653 861.92397,272.202222 858.884471,273.232784 C853.416172,275.087531 849.074774,275.549517 846.600374,275.636514 C847.350974,279.07842 849.919273,282.938256 855.343972,281.580822 C860.168171,280.374439 859.427971,274.423838 859.427971,274.423838 C861.87767,273.594577 866.932869,275.607989 866.654569,280.592997 C866.316669,286.65303 860.481171,290.757715 854.511972,290.758223 C849.187773,290.759644 841.715575,287.071365 839.946076,279.197191 C838.177476,271.322508 840.780076,264.577363 846.227274,259.931511 C852.320073,254.734848 859.564671,256.325458 860.168171,261.852242 C860.771771,267.377909 856.434272,269.726417 856.434272,269.726417 C859.325271,269.139772 864.81897,265.759383 869.660968,261.536434 C867.728369,248.959966 864.10517,241.590718 864.10517,241.590718 C869.027369,242.056054 873.382568,244.778029 877.131267,248.601828 C877.399267,245.322343 876.679567,241.943476 874.806367,238.919094 C870.691168,232.27262 861.77907,230.730634 856.394272,235.650674 C849.947473,241.541179 855.343972,246.298087 855.343972,246.298087 C855.343972,246.298087 853.414772,252.221382 845.710674,251.443588 C839.089576,250.774514 835.547077,244.374412 837.650676,237.743368 C841.212175,226.517939 853.075873,220.42867 864.26687,220.42867 C875.700467,220.42867 888.165264,229.227732 887.055864,245.826254 C886.799064,249.668325 885.331665,253.180174 883.150165,256.324037 C888.895164,265.327647 892.351263,275.850606 893.240863,279.913468 C893.577463,281.450986 894.222362,283.3974 895.033962,285.518823 C897.247862,273.642795 900.397361,259.090271 900.088061,248.399715 C899.565661,230.319201 895.074362,228.244373 895.074362,228.244373 C907.190559,228.472372 911.531958,235.439526 911.082158,246.050294 C910.600258,257.44119 908.805859,271.390928 905.78236,287.753433 C902.27406,306.736601 912.716958,311.506909 912.716958,311.506909 L912.716958,311.506909 Z M850.963173,263.910726 C848.506674,265.126448 846.888474,268.674639 846.465874,271.973208 C849.478173,271.505029 852.153773,269.750678 853.230173,268.009423 C854.419172,266.087169 854.302972,262.257686 850.963173,263.910726 L850.963173,263.910726 Z M1030.96513,251.914 C1030.05693,270.893209 1012.55433,278.378385 998.846937,274.319279 C996.803437,273.714362 994.568338,272.850688 992.221638,271.880729 C991.358739,277.933859 989.792139,287.604716 988.929939,294.107955 C987.977839,301.291129 989.963539,305.010674 992.586238,305.748269 C995.545138,306.581489 998.953737,304.556199 999.118837,300.360761 C999.241837,297.213751 996.261037,294.456348 996.261037,294.456348 C1001.02374,291.453588 1005.36154,293.29453 1006.90883,296.678979 C1008.52373,300.208187 1008.41623,307.114332 1001.54424,310.456653 C995.213538,313.535548 985.69644,312.066043 982.556341,302.652117 C980.876941,304.111064 977.667742,306.138688 973.350243,305.399266 C963.369445,303.691713 966.677045,292.811225 967.476844,289.617113 C969.078344,283.215083 971.355143,278.983099 968.634044,277.048969 C966.387045,275.45308 962.564346,277.031305 960.303746,278.718658 C960.051746,279.982192 959.830246,281.159847 959.652046,282.221776 C958.427447,289.511539 957.234047,296.678979 961.284846,299.393746 C961.284846,299.393746 955.444047,301.481467 951.800048,297.299529 C947.947449,292.878123 951.499248,281.792477 952.975848,275.811218 C954.029448,271.542894 957.097647,261.817423 958.282147,253.451417 C953.769848,254.903969 947.879449,256.042642 941.960151,254.392343 C933.477253,252.028507 931.381053,245.298284 933.879553,239.321086 C936.805852,232.320737 945.83565,229.037902 953.800048,231.007765 C961.046746,232.800082 964.414245,237.545621 965.486345,243.213 C971.368443,239.626539 977.495642,236.059264 982.652041,237.908429 C990.750239,240.811604 985.89224,251.712293 978.722942,252.501355 C978.722942,252.501355 979.428341,248.870127 977.559242,248.049291 C975.266442,247.043397 970.489144,248.687302 965.750145,250.577376 C965.718245,250.925363 965.681645,251.273452 965.639345,251.62154 C964.907945,257.637212 963.043446,265.884447 961.504046,273.00113 C963.742645,271.179476 967.522544,268.642256 971.763943,269.276307 C977.821542,270.181906 978.094442,277.345387 976.799442,283.367758 C975.587142,289.004481 973.252643,296.280439 975.313142,298.433635 C977.080242,300.27884 979.828741,298.720917 981.543641,297.071023 C980.943041,288.590307 983.090841,276.709509 983.79764,268.340863 C980.428041,266.97277 977.020442,265.726899 973.768243,264.975397 C968.759444,263.818045 967.056945,265.747709 967.056945,265.747709 C967.624244,260.562517 972.131143,260.314622 976.894742,261.23159 C979.149542,261.665661 981.492341,262.286921 983.84634,262.958837 C983.273541,257.142944 980.610041,255.430315 980.610041,255.430315 C981.671541,254.563392 984.54614,251.977445 988.911739,253.803059 C992.704338,255.38971 993.215738,260.715497 992.932438,265.540724 C996.249237,266.383384 999.372137,266.950031 1002.05494,266.804461 C1010.89183,266.323187 1018.17213,262.099528 1018.17213,251.018349 C1018.17213,239.93717 1001.27174,235.670469 996.805337,247.396968 C996.805337,247.396968 991.793638,245.460908 993.344938,239.028119 C995.262938,231.07517 1005.35184,227.683716 1012.72813,228.62454 C1017.67933,229.255546 1031.79223,234.599302 1030.96513,251.914 L1030.96513,251.914 Z M956.657447,248.073553 C957.342147,247.797031 958.041847,247.472899 958.753247,247.114659 C958.719647,245.022777 958.434047,243.20559 957.798147,241.834654 C954.815148,235.401865 945.27795,236.161184 943.78095,241.54859 C942.283351,246.937011 949.653549,250.902319 956.657447,248.073553 L956.657447,248.073553 Z M1029.85763,306.091688 C1026.86353,321.078282 1012.16563,327.16217 998.556337,326.881588 C984.94754,326.600599 955.494747,314.915112 946.38835,311.872255 C945.50835,311.578171 944.66865,311.293122 943.86555,311.019138 C942.626951,313.560013 941.079851,315.911972 939.175451,317.773724 C933.531453,323.291473 921.795556,323.278581 918.374156,316.197427 C915.298557,309.830621 919.419156,300.518919 931.633953,301.384826 C933.553053,301.520752 936.473052,302.212971 940.055451,303.244852 C940.429251,301.616479 940.739551,299.786196 940.988951,297.735732 C941.099851,296.823839 941.185851,295.979147 941.251151,295.194653 C933.576153,298.599406 927.599854,295.779674 924.736655,290.469418 C923.010055,292.538256 919.037056,295.481327 914.584157,294.100544 C909.990459,292.676923 909.089059,288.755672 909.632959,285.025773 C910.177959,281.295367 914.081258,269.021611 914.584157,267.065655 C914.990457,265.486922 914.041658,264.863935 914.041658,264.863935 C915.855157,262.625975 921.492356,262.625975 922.623755,266.655237 C923.692555,270.461474 920.130556,277.979845 918.904956,282.561338 C917.680357,287.142222 918.904956,288.89302 920.810256,287.926919 C921.818256,287.415698 922.635555,286.633742 923.181955,286.01035 C922.779855,283.87573 922.772155,281.565798 923.213055,279.223483 C925.456755,267.306038 933.634953,263.440822 940.580251,264.578886 C946.15985,265.684263 948.036749,269.766514 947.733549,272.919006 C947.377649,276.630125 942.473851,278.948889 942.473851,278.948889 C943.72185,272.828863 939.593951,270.064963 936.757952,271.737799 C930.844853,275.227822 929.557754,288.53011 936.633952,290.137064 C938.516152,290.564942 940.118251,289.92348 941.307351,289.09432 C940.980251,285.809658 940.036351,285.301382 940.036351,285.301382 C942.076851,282.40115 944.25505,281.710251 946.29555,282.561338 C948.337549,283.41283 948.610549,290.137064 947.928849,296.435551 C947.656749,298.955615 947.090349,302.005478 946.15315,305.10569 C963.687245,310.672064 989.790039,320.237347 999.645137,317.906503 C1005.31214,316.565717 1014.20763,313.623966 1015.97623,301.742254 C1017.74573,289.861049 1007.53933,288.588683 1007.53933,288.588683 C1020.05923,276.264272 1032.85223,291.10418 1029.85763,306.091688 L1029.85763,306.091688 Z M938.038052,309.062471 C933.579653,307.653265 930.638653,307.131893 928.182754,308.31777 C925.182755,309.767582 925.900555,315.161485 930.994753,314.400136 C934.017753,313.948301 936.337652,312.320334 938.038052,309.062471 L938.038052,309.062471 Z M921.810256,260.724024 C925.639855,260.724024 928.745254,257.572142 928.745254,253.684085 C928.745254,249.796029 925.639855,246.644552 921.810256,246.644552 C917.980657,246.644552 914.875657,249.796029 914.875657,253.684085 C914.875657,257.572142 917.980657,260.724024 921.810256,260.724024 L921.810256,260.724024 Z" id="logo" sketch:type="MSShapeGroup"></path>
            </g>
        </g>
    </g>
</svg>