<?xml version="1.0" encoding="utf-8"?>
<!-- Generator: Adobe Illustrator 17.0.2, SVG Export Plug-In . SVG Version: 6.00 Build 0)  -->
<!DOCTYPE svg PUBLIC "-//W3C//DTD SVG 1.1//EN" "http://www.w3.org/Graphics/SVG/1.1/DTD/svg11.dtd">
<svg version="1.1" id="Layer_1" xmlns="http://www.w3.org/2000/svg" xmlns:xlink="http://www.w3.org/1999/xlink" x="0px" y="0px"
	 width="485px" height="74px" viewBox="0 0 485 74" enable-background="new 0 0 485 74" xml:space="preserve">
<g>
	<defs>
		<rect id="SVGID_1_" x="-248" width="980" height="700"/>
	</defs>
	<clipPath id="SVGID_2_">
		<use xlink:href="#SVGID_1_"  overflow="visible"/>
	</clipPath>
</g>
<g display="none">
	<g display="inline">
		<g>
			<g opacity="0.05">
				<rect x="-208" y="11" width="607" height="332"/>
				<rect x="-208.5" y="11.5" fill="none" stroke="#000000" stroke-miterlimit="10" width="608" height="331"/>
			</g>
			<g>
				<rect x="-208" y="9" fill="#FFFFFF" width="607" height="332"/>
				<rect x="-208.5" y="9.5" fill="none" stroke="#D5D5D5" stroke-miterlimit="10" width="608" height="331"/>
			</g>
		</g>
		<g>
			<path fill="#797979" d="M223.915,40.716l-0.423-1.138h-2.881l-0.423,1.138h-1.621l2.588-6.717h1.793l2.588,6.717H223.915z
				 M222.052,35.429l-1.048,2.89h2.095L222.052,35.429z"/>
			<path fill="#797979" d="M227.408,40.092v2.478h-1.278v-6.717h1.278v0.614c0.373-0.473,0.906-0.735,1.501-0.735
				c1.249,0,2.155,0.926,2.155,2.548c0,1.621-0.906,2.558-2.155,2.558C228.335,40.837,227.812,40.595,227.408,40.092z
				 M229.745,38.279c0-0.836-0.504-1.41-1.239-1.41c-0.412,0-0.876,0.232-1.098,0.554v1.712c0.212,0.312,0.686,0.564,1.098,0.564
				C229.241,39.699,229.745,39.125,229.745,38.279z"/>
			<path fill="#797979" d="M233.279,40.092v2.478h-1.278v-6.717h1.278v0.614c0.373-0.473,0.906-0.735,1.501-0.735
				c1.249,0,2.155,0.926,2.155,2.548c0,1.621-0.906,2.558-2.155,2.558C234.206,40.837,233.683,40.595,233.279,40.092z
				 M235.616,38.279c0-0.836-0.504-1.41-1.239-1.41c-0.412,0-0.876,0.232-1.098,0.554v1.712c0.212,0.312,0.686,0.564,1.098,0.564
				C235.112,39.699,235.616,39.125,235.616,38.279z"/>
			<path fill="#797979" d="M237.871,40.716v-6.717h1.278v6.717H237.871z"/>
			<path fill="#797979" d="M240.298,34.563c0-0.423,0.343-0.755,0.755-0.755c0.424,0,0.766,0.333,0.766,0.755
				s-0.342,0.766-0.766,0.766C240.641,35.329,240.298,34.986,240.298,34.563z M240.419,40.716v-4.864h1.278v4.864H240.419z"/>
			<path fill="#797979" d="M242.654,38.279c0-1.491,1.088-2.548,2.578-2.548c0.997,0,1.602,0.433,1.924,0.876l-0.836,0.786
				c-0.231-0.343-0.584-0.524-1.027-0.524c-0.775,0-1.319,0.564-1.319,1.41c0,0.846,0.544,1.42,1.319,1.42
				c0.443,0,0.796-0.202,1.027-0.534l0.836,0.785c-0.322,0.443-0.927,0.887-1.924,0.887
				C243.742,40.837,242.654,39.78,242.654,38.279z"/>
			<path fill="#797979" d="M250.911,40.716v-0.514c-0.332,0.403-0.906,0.635-1.54,0.635c-0.776,0-1.683-0.524-1.683-1.611
				c0-1.148,0.906-1.571,1.683-1.571c0.654,0,1.218,0.211,1.54,0.594v-0.614c0-0.494-0.423-0.816-1.067-0.816
				c-0.514,0-0.997,0.202-1.399,0.574l-0.504-0.896c0.595-0.534,1.359-0.765,2.125-0.765c1.118,0,2.135,0.443,2.135,1.843v3.142
				H250.911z M250.911,39.548v-0.604c-0.211-0.282-0.614-0.433-1.027-0.433c-0.503,0-0.916,0.272-0.916,0.735
				s0.413,0.725,0.916,0.725C250.297,39.971,250.7,39.83,250.911,39.548z"/>
			<path fill="#797979" d="M253.721,39.498V36.97h-0.806v-1.118h0.806v-1.329H255v1.329h0.986v1.118H255v2.185
				c0,0.312,0.16,0.544,0.442,0.544c0.191,0,0.373-0.071,0.443-0.151l0.271,0.977c-0.19,0.171-0.533,0.312-1.067,0.312
				C254.193,40.837,253.721,40.374,253.721,39.498z"/>
			<path fill="#797979" d="M256.742,34.563c0-0.423,0.343-0.755,0.755-0.755c0.423,0,0.766,0.333,0.766,0.755
				s-0.343,0.766-0.766,0.766C257.085,35.329,256.742,34.986,256.742,34.563z M256.863,40.716v-4.864h1.278v4.864H256.863z"/>
			<path fill="#797979" d="M259.098,38.279c0-1.38,0.967-2.548,2.568-2.548c1.611,0,2.578,1.168,2.578,2.548
				c0,1.379-0.967,2.558-2.578,2.558C260.064,40.837,259.098,39.659,259.098,38.279z M262.914,38.279c0-0.755-0.442-1.41-1.248-1.41
				c-0.796,0-1.239,0.655-1.239,1.41c0,0.765,0.443,1.42,1.239,1.42C262.472,39.699,262.914,39.044,262.914,38.279z"/>
			<path fill="#797979" d="M268.483,40.716v-2.94c0-0.675-0.353-0.907-0.896-0.907c-0.504,0-0.887,0.282-1.108,0.564v3.283H265.2
				v-4.864h1.278v0.625c0.312-0.363,0.917-0.745,1.702-0.745c1.078,0,1.592,0.604,1.592,1.551v3.434H268.483z"/>
			<path fill="#797979" d="M273.649,40.716v-6.717h2.648c2.104,0,3.564,1.339,3.564,3.354c0,2.035-1.46,3.364-3.555,3.364H273.649z
				 M278.402,37.353c0-1.178-0.725-2.095-2.095-2.095h-1.229v4.2h1.219C277.627,39.458,278.402,38.5,278.402,37.353z"/>
			<path fill="#797979" d="M280.536,38.279c0-1.41,1.048-2.548,2.518-2.548c1.46,0,2.438,1.087,2.438,2.668v0.302h-3.615
				c0.09,0.594,0.573,1.087,1.399,1.087c0.413,0,0.977-0.171,1.289-0.473l0.574,0.846c-0.483,0.443-1.249,0.675-2.004,0.675
				C281.654,40.837,280.536,39.84,280.536,38.279z M283.054,36.779c-0.796,0-1.138,0.554-1.188,1.037h2.397
				C284.222,37.353,283.899,36.779,283.054,36.779z"/>
			<path fill="#797979" d="M289.338,40.716v-0.514c-0.332,0.403-0.906,0.635-1.541,0.635c-0.775,0-1.682-0.524-1.682-1.611
				c0-1.148,0.906-1.571,1.682-1.571c0.655,0,1.219,0.211,1.541,0.594v-0.614c0-0.494-0.423-0.816-1.067-0.816
				c-0.514,0-0.997,0.202-1.399,0.574l-0.504-0.896c0.595-0.534,1.359-0.765,2.125-0.765c1.118,0,2.135,0.443,2.135,1.843v3.142
				H289.338z M289.338,39.548v-0.604c-0.211-0.282-0.614-0.433-1.027-0.433c-0.503,0-0.916,0.272-0.916,0.735
				s0.413,0.725,0.916,0.725C288.724,39.971,289.127,39.83,289.338,39.548z"/>
			<path fill="#797979" d="M295.229,40.716v-0.625c-0.382,0.483-0.906,0.746-1.5,0.746c-1.219,0-2.155-0.927-2.155-2.558
				c0-1.581,0.916-2.548,2.155-2.548c0.574,0,1.118,0.242,1.5,0.745v-2.478h1.289v6.717H295.229z M295.229,39.145v-1.722
				c-0.211-0.322-0.674-0.554-1.098-0.554c-0.734,0-1.238,0.574-1.238,1.41c0,0.846,0.504,1.42,1.238,1.42
				C294.555,39.699,295.018,39.467,295.229,39.145z"/>
			<path fill="#797979" d="M297.786,40.716v-6.717h1.278v6.717H297.786z"/>
			<path fill="#797979" d="M300.213,34.563c0-0.423,0.343-0.755,0.755-0.755c0.423,0,0.766,0.333,0.766,0.755
				s-0.343,0.766-0.766,0.766C300.556,35.329,300.213,34.986,300.213,34.563z M300.334,40.716v-4.864h1.278v4.864H300.334z"/>
			<path fill="#797979" d="M306.165,40.716v-2.94c0-0.675-0.353-0.907-0.896-0.907c-0.504,0-0.887,0.282-1.108,0.564v3.283h-1.278
				v-4.864h1.278v0.625c0.312-0.363,0.917-0.745,1.702-0.745c1.078,0,1.592,0.604,1.592,1.551v3.434H306.165z"/>
			<path fill="#797979" d="M308.399,38.279c0-1.41,1.048-2.548,2.518-2.548c1.46,0,2.438,1.087,2.438,2.668v0.302h-3.615
				c0.09,0.594,0.573,1.087,1.399,1.087c0.413,0,0.977-0.171,1.289-0.473l0.574,0.846c-0.483,0.443-1.249,0.675-2.004,0.675
				C309.518,40.837,308.399,39.84,308.399,38.279z M310.917,36.779c-0.796,0-1.138,0.554-1.188,1.037h2.397
				C312.085,37.353,311.763,36.779,310.917,36.779z"/>
			<path fill="#797979" d="M314.119,36.597c0-0.443,0.372-0.815,0.815-0.815s0.815,0.373,0.815,0.815
				c0,0.443-0.372,0.816-0.815,0.816S314.119,37.041,314.119,36.597z M314.119,40.011c0-0.443,0.372-0.815,0.815-0.815
				s0.815,0.373,0.815,0.815c0,0.443-0.372,0.816-0.815,0.816S314.119,40.455,314.119,40.011z"/>
			<path fill="#797979" d="M325.236,40.716v-5.65l-2.275,5.65h-0.343l-2.286-5.65v5.65h-0.836v-6.717h1.199l2.095,5.176l2.084-5.176
				h1.198v6.717H325.236z"/>
			<path fill="#797979" d="M330.654,40.716v-0.554c-0.393,0.443-0.957,0.675-1.611,0.675c-0.816,0-1.692-0.554-1.692-1.611
				c0-1.098,0.866-1.602,1.692-1.602c0.664,0,1.219,0.211,1.611,0.655v-0.876c0-0.645-0.523-1.017-1.229-1.017
				c-0.584,0-1.058,0.202-1.491,0.675l-0.353-0.523c0.524-0.544,1.148-0.806,1.944-0.806c1.037,0,1.883,0.463,1.883,1.641v3.344
				H330.654z M330.654,39.689v-0.926c-0.292-0.393-0.806-0.594-1.329-0.594c-0.716,0-1.209,0.443-1.209,1.058
				c0,0.624,0.493,1.067,1.209,1.067C329.849,40.293,330.362,40.092,330.654,39.689z"/>
			<path fill="#797979" d="M332.778,41.935c0.11,0.05,0.292,0.081,0.413,0.081c0.332,0,0.554-0.111,0.725-0.514l0.322-0.735
				l-2.034-4.915h0.826l1.611,3.988l1.621-3.988h0.815l-2.437,5.851c-0.292,0.705-0.786,0.977-1.431,0.987
				c-0.161,0-0.413-0.03-0.544-0.07L332.778,41.935z"/>
			<path fill="#797979" d="M340.009,39.729l0.493-0.524c0.394,0.524,1.078,0.886,1.873,0.886c0.978,0,1.571-0.493,1.571-1.259
				c0-0.836-0.685-1.188-1.672-1.188c-0.281,0-0.594,0-0.694,0.01v-0.766c0.11,0.01,0.423,0.01,0.694,0.01
				c0.847,0,1.562-0.333,1.562-1.108c0-0.745-0.685-1.148-1.501-1.148c-0.735,0-1.278,0.282-1.772,0.816l-0.463-0.524
				c0.483-0.594,1.259-1.037,2.306-1.037c1.289,0,2.267,0.655,2.267,1.783c0,0.977-0.816,1.46-1.44,1.561
				c0.604,0.061,1.551,0.574,1.551,1.662c0,1.118-0.906,1.934-2.387,1.934C341.258,40.837,340.422,40.333,340.009,39.729z"/>
			<path fill="#797979" d="M347.118,40.716v-5.62l-1.078,1.148l-0.503-0.513l1.682-1.732h0.735v6.717H347.118z"/>
			<path fill="#797979" d="M349.696,41.995l-0.383-0.312c0.322-0.211,0.614-0.604,0.654-0.937c-0.021,0.01-0.091,0.02-0.141,0.02
				c-0.272,0-0.483-0.222-0.483-0.514s0.231-0.543,0.533-0.543c0.343,0,0.635,0.282,0.635,0.765
				C350.512,41.089,350.159,41.663,349.696,41.995z"/>
			<path fill="#797979" d="M354.207,40.716v-0.675c2.417-1.893,3.736-3.011,3.736-4.169c0-0.866-0.715-1.229-1.41-1.229
				c-0.806,0-1.43,0.342-1.822,0.846l-0.514-0.534c0.514-0.685,1.39-1.057,2.336-1.057c1.118,0,2.256,0.634,2.256,1.974
				c0,1.37-1.39,2.619-3.263,4.099h3.293v0.745H354.207z"/>
			<path fill="#797979" d="M360.098,37.363c0-1.642,0.725-3.464,2.568-3.464c1.832,0,2.567,1.823,2.567,3.464
				c0,1.631-0.735,3.475-2.567,3.475C360.822,40.837,360.098,38.994,360.098,37.363z M364.378,37.363
				c0-1.339-0.434-2.719-1.712-2.719c-1.279,0-1.713,1.38-1.713,2.719s0.434,2.729,1.713,2.729
				C363.944,40.092,364.378,38.702,364.378,37.363z"/>
			<path fill="#797979" d="M367.54,40.716v-5.62l-1.078,1.148l-0.503-0.513l1.682-1.732h0.735v6.717H367.54z"/>
			<path fill="#797979" d="M372.675,40.716v-1.702h-3.192v-0.695l2.88-4.32h1.148v4.28h0.946v0.735h-0.946v1.702H372.675z
				 M372.675,34.774l-2.356,3.505h2.356V34.774z"/>
		</g>
		<line fill="none" stroke="#EAEAEA" stroke-miterlimit="10" x1="-209" y1="63.5" x2="399" y2="63.5"/>
	</g>
	<g display="inline">
		<g>
			<g opacity="0.05">
				<rect x="415" y="11" width="277" height="187"/>
				<rect x="414.5" y="11.5" fill="none" stroke="#000000" stroke-miterlimit="10" width="277" height="186"/>
			</g>
			<g>
				<rect x="415" y="9" fill="#FFFFFF" width="277" height="187"/>
				<rect x="414.5" y="9.5" fill="none" stroke="#D5D5D5" stroke-miterlimit="10" width="277" height="186"/>
			</g>
		</g>
		<line fill="none" stroke="#EAEAEA" stroke-miterlimit="10" x1="414" y1="63.5" x2="691" y2="63.5"/>
		<g>
			<path fill="#424242" d="M447.004,41.555v-8.073l-3.155,8.073h-1.041l-3.155-8.073v8.073h-2.384V30.36h3.341l2.719,6.999
				l2.719-6.999h3.357v11.195H447.004z"/>
			<path fill="#424242" d="M451.602,42.814c0.185,0.084,0.47,0.134,0.672,0.134c0.554,0,0.923-0.151,1.124-0.587l0.303-0.705
				l-3.29-8.208h2.282l2.115,5.64l2.132-5.64h2.282l-3.81,9.433c-0.604,1.527-1.679,1.93-3.072,1.964
				c-0.234,0-0.788-0.051-1.04-0.135L451.602,42.814z"/>
			<path fill="#424242" d="M464.541,41.555V30.36h5.237c2.434,0,3.76,1.645,3.76,3.608c0,1.947-1.343,3.592-3.76,3.592h-2.854v3.995
				H464.541z M471.104,33.968c0-0.939-0.722-1.51-1.662-1.51h-2.518v3.004h2.518C470.383,35.462,471.104,34.892,471.104,33.968z"/>
			<path fill="#424242" d="M474.98,41.555v-8.107h2.132v1.091c0.587-0.705,1.577-1.292,2.585-1.292v2.082
				c-0.151-0.034-0.336-0.05-0.588-0.05c-0.705,0-1.645,0.403-1.997,0.923v5.354H474.98z"/>
			<path fill="#424242" d="M480.502,37.493c0-2.299,1.611-4.247,4.28-4.247c2.686,0,4.297,1.947,4.297,4.247
				c0,2.3-1.611,4.263-4.297,4.263C482.113,41.756,480.502,39.793,480.502,37.493z M486.863,37.493c0-1.259-0.738-2.35-2.081-2.35
				c-1.326,0-2.064,1.091-2.064,2.35c0,1.276,0.738,2.367,2.064,2.367C486.125,39.86,486.863,38.769,486.863,37.493z"/>
		</g>
	</g>
</g>
<g>
	<g>
		<path fill="#1E1F20" d="M129.024,23.633h3.444v25.685h10.938V52.6h-14.382V23.633z"/>
		<path fill="#1E1F20" d="M171.843,48.913c-2.958,2.876-6.928,4.456-10.979,4.456c-4.091,0-8.021-1.62-10.938-4.456
			c-2.958-2.876-4.538-6.604-4.538-10.736s1.58-7.9,4.538-10.776c2.917-2.835,6.847-4.416,10.938-4.416
			c4.092,0,8.062,1.58,10.979,4.416c2.958,2.876,4.497,6.644,4.497,10.776S174.76,46.077,171.843,48.913z M169.25,46.604
			c2.269-2.269,3.484-5.186,3.484-8.427c0-3.241-1.215-6.239-3.484-8.507c-2.269-2.269-5.186-3.484-8.386-3.484
			c-3.2,0-6.158,1.215-8.386,3.484c-2.269,2.309-3.484,5.267-3.484,8.507c0,3.241,1.215,6.117,3.484,8.427
			c2.309,2.309,5.186,3.524,8.386,3.524C164.024,50.128,166.941,48.913,169.25,46.604z"/>
		<path fill="#1E1F20" d="M195.821,26.145c-3.039,0-6.118,1.296-8.265,3.525c-2.228,2.309-3.322,5.145-3.322,8.548
			c0,2.674,0.648,4.942,1.985,6.847c2.309,3.281,5.834,5.145,9.763,5.145c3.646,0,6.847-1.499,9.48-4.578v4.578
			c-2.876,2.066-6.239,3.16-9.763,3.16c-3.079,0-6.037-0.932-8.548-2.674c-4.213-2.917-6.522-7.292-6.522-12.437
			c0-4.497,1.499-8.103,4.538-11.06c2.958-2.836,6.522-4.254,10.776-4.254c3.443,0,6.522,1.053,9.52,3.119v4.497
			C202.667,27.522,199.588,26.145,195.821,26.145z"/>
		<path fill="#1E1F20" d="M233.654,52.6h-3.727l-3.768-8.872h-11.303l-3.768,8.872h-3.727l13.126-30.101L233.654,52.6z
			 M215.87,40.77h9.237l-4.619-10.655L215.87,40.77z"/>
		<path fill="#1E1F20" d="M236.648,23.633h3.444v25.685h10.938V52.6h-14.382V23.633z"/>
		<path fill="#1E1F20" d="M267.069,23.633h15.272v3.16h-11.829v8.305h11.829v3.201h-11.829V52.6h-3.443V23.633z"/>
		<path fill="#1E1F20" d="M312.723,48.913c-2.957,2.876-6.928,4.456-10.979,4.456c-4.092,0-8.021-1.62-10.938-4.456
			c-2.957-2.876-4.537-6.604-4.537-10.736s1.58-7.9,4.537-10.776c2.917-2.835,6.847-4.416,10.938-4.416s8.062,1.58,10.979,4.416
			c2.957,2.876,4.497,6.644,4.497,10.776S315.64,46.077,312.723,48.913z M310.13,46.604c2.269-2.269,3.484-5.186,3.484-8.427
			c0-3.241-1.216-6.239-3.484-8.507c-2.269-2.269-5.186-3.484-8.386-3.484c-3.201,0-6.158,1.215-8.387,3.484
			c-2.269,2.309-3.483,5.267-3.483,8.507c0,3.241,1.215,6.117,3.483,8.427c2.31,2.309,5.186,3.524,8.387,3.524
			C304.903,50.128,307.82,48.913,310.13,46.604z"/>
		<path fill="#1E1F20" d="M347.963,48.913c-2.957,2.876-6.928,4.456-10.979,4.456c-4.092,0-8.021-1.62-10.938-4.456
			c-2.957-2.876-4.537-6.604-4.537-10.736s1.58-7.9,4.537-10.776c2.917-2.835,6.847-4.416,10.938-4.416s8.062,1.58,10.979,4.416
			c2.957,2.876,4.497,6.644,4.497,10.776S350.88,46.077,347.963,48.913z M345.37,46.604c2.269-2.269,3.484-5.186,3.484-8.427
			c0-3.241-1.216-6.239-3.484-8.507c-2.269-2.269-5.186-3.484-8.386-3.484c-3.201,0-6.158,1.215-8.387,3.484
			c-2.269,2.309-3.483,5.267-3.483,8.507c0,3.241,1.215,6.117,3.483,8.427c2.31,2.309,5.186,3.524,8.387,3.524
			C340.144,50.128,343.061,48.913,345.37,46.604z"/>
		<path fill="#1E1F20" d="M358.086,23.633h5.55c5.429,0,9.602,0,13.126,2.714c3.322,2.552,5.063,6.604,5.063,11.789
			s-1.741,9.196-5.063,11.749c-3.362,2.593-7.171,2.714-11.87,2.714h-1.256h-5.55V23.633z M363.757,49.359
			c4.943,0,8.387-0.041,10.817-2.066c2.35-1.944,3.646-5.104,3.646-9.196s-1.256-7.17-3.646-9.156
			c-2.391-2.025-5.834-2.106-10.817-2.106h-2.188v22.525H363.757z"/>
		<path fill="#1E1F20" d="M399.401,23.633h3.443v25.685h10.938V52.6h-14.382V23.633z"/>
		<path fill="#1E1F20" d="M440.194,52.6h-3.728l-3.768-8.872h-11.303l-3.768,8.872h-3.728l13.126-30.101L440.194,52.6z
			 M422.409,40.77h9.236l-4.618-10.655L422.409,40.77z"/>
		<path fill="#1E1F20" d="M443.188,23.633h6.036c3.16,0,5.469,0.122,7.292,1.458s2.917,3.565,2.917,6.158
			c0,3.079-1.54,5.186-4.294,5.996c3.402,0.526,5.55,3.241,5.55,7.13c0,2.391-0.932,4.578-2.391,6.037
			c-2.106,2.066-4.942,2.188-9.074,2.188h-6.036V23.633z M446.551,36.314h2.674c4.659,0,6.685-1.135,6.685-4.659
			c0-4.173-2.106-5.023-6.685-5.023h-2.674V36.314z M446.551,49.602h2.674c2.755,0,4.659-0.081,5.915-0.972
			c1.175-0.851,1.903-2.431,1.903-4.254c0-2.106-0.81-3.687-2.39-4.578c-1.216-0.729-2.634-0.77-4.416-0.77h-1.013h-2.674V49.602z"
			/>
	</g>
	<g>
		<path fill="#1E1F20" d="M74.079,6.558c-18.155,0-32.866,14.71-32.866,32.865s14.712,32.865,32.866,32.865
			c18.153,0,32.865-14.71,32.865-32.865S92.232,6.558,74.079,6.558z M81,56h-6.719C71.262,56,69,52.736,69,49.716V23h8v24h4V56z"/>
		<path fill="#1E1F20" d="M45.275,16.012c0,0-2.312-16.16-22.744-9.496C22.531,6.515,29.95,29.557,45.275,16.012z"/>
		<path fill="#1E1F20" d="M46.756,13.61c0,0-3.916-11.144,7.484-12.187C54.24,1.423,55.322,11.126,46.756,13.61z"/>
	</g>
</g>
</svg>
